<svg width="500" height="500" viewBox="0 0 500 500" fill="none" xmlns="http://www.w3.org/2000/svg">
<path d="M41.0588 263.176C41.0588 263.176 43.4025 335.856 104.071 384.293C164.738 432.735 248.809 436.203 316.863 440.805C384.922 445.406 437.196 406.879 445.074 348.641C452.953 290.402 400.949 273.305 372.735 207.012C344.52 140.715 347.028 118.926 287.328 78.1525C227.629 37.3791 134.235 62.4142 85.2697 132.266C36.3049 202.117 41.0588 263.176 41.0588 263.176Z" fill="#5BCBBF"/>
<path d="M68.668 380.531H59.4883" stroke="#1A2E35" stroke-width="1.113" stroke-miterlimit="10"/>
<path d="M440.512 380.531H83.1953" stroke="#1A2E35" stroke-width="1.113" stroke-miterlimit="10"/>
<path d="M336.465 410.547C336.465 415.16 322.855 418.902 306.066 418.902C289.281 418.902 275.672 415.16 275.672 410.547C275.672 405.93 289.281 402.188 306.066 402.188C322.855 402.188 336.465 405.93 336.465 410.547Z" fill="#1A2E35"/>
<path d="M149.027 429.539C117.402 429.539 112.735 424.969 112.274 421.278C112.074 419.68 112.559 418.258 113.711 417.043C122.235 408.11 171.324 411.891 239.274 417.122C248.746 417.852 258.551 418.606 268.602 419.352C337.254 424.454 364.895 423.789 370.574 416.895C371.738 415.481 371.984 413.715 371.336 411.344C368.621 401.387 332.266 401.309 318.488 402.118C317.836 402.149 317.27 401.657 317.235 401C317.195 400.348 317.692 399.782 318.348 399.747C323.617 399.438 369.918 397.11 373.629 410.719C374.484 413.856 374.086 416.372 372.41 418.407C365.996 426.188 339.758 427.02 268.426 421.723C258.371 420.973 248.567 420.219 239.09 419.489C174.328 414.504 123.176 410.563 115.434 418.684C114.774 419.375 114.52 420.102 114.629 420.985C114.926 423.336 120.578 428.614 166.641 426.774C192.367 425.75 218.223 422.95 218.481 422.918C219.129 422.848 219.719 423.321 219.789 423.973C219.86 424.625 219.391 425.211 218.738 425.282C218.481 425.309 192.555 428.122 166.746 429.149C160.059 429.418 154.184 429.539 149.027 429.539Z" fill="white"/>
<path d="M149.027 429.539C117.402 429.539 112.735 424.969 112.274 421.277C112.074 419.68 112.559 418.258 113.711 417.043C122.235 408.109 171.324 411.891 239.274 417.121C248.746 417.852 258.551 418.605 268.602 419.352C337.254 424.453 364.895 423.789 370.574 416.895C371.738 415.48 371.985 413.715 371.336 411.344C368.621 401.387 332.266 401.309 318.488 402.117C317.836 402.148 317.27 401.656 317.235 401C317.195 400.348 317.692 399.781 318.348 399.746C323.617 399.438 369.918 397.109 373.629 410.719C374.485 413.855 374.086 416.371 372.41 418.406C365.996 426.188 339.758 427.02 268.426 421.723C258.371 420.973 248.567 420.219 239.09 419.488C174.328 414.504 123.176 410.563 115.434 418.684C114.774 419.375 114.52 420.102 114.629 420.984C114.926 423.336 120.578 428.613 166.641 426.773C192.367 425.75 218.223 422.949 218.481 422.918C219.129 422.848 219.719 423.32 219.789 423.973C219.86 424.625 219.391 425.211 218.738 425.281C218.481 425.309 192.555 428.121 166.746 429.148C160.059 429.418 154.184 429.539 149.027 429.539Z" stroke="#1A2E35" stroke-width="1.113" stroke-miterlimit="10"/>
<path d="M330.574 382.082C330.574 362.309 314.547 346.273 294.77 346.273C274.996 346.273 258.965 362.309 258.965 382.082C258.965 401.855 274.996 417.887 294.77 417.887C314.547 417.887 330.574 401.855 330.574 382.082Z" fill="white"/>
<mask id="mask0_2298_3740" style="mask-type:alpha" maskUnits="userSpaceOnUse" x="270" y="361" width="61" height="57">
<path d="M270 361H331V418H270V361Z" fill="black"/>
</mask>
<g mask="url(#mask0_2298_3740)">
<mask id="mask1_2298_3740" style="mask-type:alpha" maskUnits="userSpaceOnUse" x="258" y="346" width="73" height="72">
<path d="M258.965 382.082C258.965 401.855 274.996 417.887 294.77 417.887C314.547 417.887 330.574 401.855 330.574 382.082C330.574 362.305 314.547 346.273 294.77 346.273C274.996 346.273 258.965 362.305 258.965 382.082Z" fill="black"/>
</mask>
<g mask="url(#mask1_2298_3740)">
<path d="M294.77 417.887C314.547 417.887 330.578 401.855 330.578 382.082C330.578 374.602 328.277 367.656 324.355 361.91C323.961 377.508 315.336 400.535 270.57 408.465C276.941 414.316 285.438 417.887 294.77 417.887Z" fill="#5BCBBF"/>
</g>
</g>
<mask id="mask2_2298_3740" style="mask-type:alpha" maskUnits="userSpaceOnUse" x="277" y="346" width="51" height="51">
<path d="M277 346H328V397H277V346Z" fill="black"/>
</mask>
<g mask="url(#mask2_2298_3740)">
<mask id="mask3_2298_3740" style="mask-type:alpha" maskUnits="userSpaceOnUse" x="258" y="346" width="73" height="72">
<path d="M258.965 382.082C258.965 401.855 274.996 417.887 294.77 417.887C314.547 417.887 330.574 401.855 330.574 382.082C330.574 362.305 314.547 346.273 294.77 346.273C274.996 346.273 258.965 362.305 258.965 382.082Z" fill="black"/>
</mask>
<g mask="url(#mask3_2298_3740)">
<path d="M312.395 396.117C301.879 385.828 289.754 382.613 289.754 382.613C289.754 382.613 301.879 385.828 312.395 396.117ZM312.395 396.117C313.023 396.129 313.645 396.145 314.289 396.145C319.254 391.145 322.699 386.309 325.078 382.078C308.305 364.34 291.949 366.148 291.949 366.148C291.949 366.148 308.305 364.34 325.078 382.078C326.004 380.434 326.77 378.887 327.402 377.449C320.465 367.672 308.453 361.039 301.961 360.02L300.461 359.664C296.117 358.98 293.414 359.562 293.414 359.562C293.414 359.562 296.117 358.98 300.461 359.664L304.73 347.699C302.734 347.133 300.676 346.727 298.555 346.516C295.797 350.98 288.656 365.262 288.656 393.59C288.656 365.262 295.797 350.98 298.555 346.516C297.363 346.395 296.156 346.332 294.93 346.332C293.563 346.332 292.211 346.418 290.879 346.566C286.66 352.949 278.59 368.023 278.047 390.641C286.457 393.637 297.66 395.906 312.395 396.117ZM320.484 388.832C306.215 374.93 290.484 374.199 290.484 374.199C290.484 374.199 306.215 374.93 320.484 388.832Z" stroke="#1A2E35" stroke-width="1.113" stroke-miterlimit="10" stroke-linecap="round" stroke-linejoin="round"/>
</g>
</g>
<mask id="mask4_2298_3740" style="mask-type:alpha" maskUnits="userSpaceOnUse" x="268" y="346" width="24" height="46">
<path d="M268 346H292V392H268V346Z" fill="black"/>
</mask>
<g mask="url(#mask4_2298_3740)">
<mask id="mask5_2298_3740" style="mask-type:alpha" maskUnits="userSpaceOnUse" x="258" y="346" width="73" height="72">
<path d="M258.965 382.082C258.965 401.855 274.996 417.887 294.77 417.887C314.547 417.887 330.574 401.855 330.574 382.082C330.574 362.305 314.547 346.273 294.77 346.273C274.996 346.273 258.965 362.305 258.965 382.082Z" fill="black"/>
</mask>
<g mask="url(#mask5_2298_3740)">
<path d="M278.047 390.641C278.59 368.023 286.66 352.949 290.879 346.566C287.512 346.945 284.285 347.789 281.266 349.035C276.699 355.687 269.508 368.895 268.918 386.629C271.508 388.027 274.539 389.395 278.047 390.641Z" stroke="#1A2E35" stroke-width="1.113" stroke-miterlimit="10" stroke-linecap="round" stroke-linejoin="round"/>
</g>
</g>
<mask id="mask6_2298_3740" style="mask-type:alpha" maskUnits="userSpaceOnUse" x="258" y="348" width="24" height="40">
<path d="M258 348H282V388H258V348Z" fill="black"/>
</mask>
<g mask="url(#mask6_2298_3740)">
<mask id="mask7_2298_3740" style="mask-type:alpha" maskUnits="userSpaceOnUse" x="258" y="346" width="73" height="72">
<path d="M258.965 382.082C258.965 401.855 274.996 417.887 294.77 417.887C314.547 417.887 330.574 401.855 330.574 382.082C330.574 362.305 314.547 346.273 294.77 346.273C274.996 346.273 258.965 362.305 258.965 382.082Z" fill="black"/>
</mask>
<g mask="url(#mask7_2298_3740)">
<path d="M281.266 349.035C268.953 354.113 260.09 365.844 259.148 379.754C261.332 381.797 264.5 384.25 268.918 386.629C269.504 368.895 276.703 355.687 281.266 349.035Z" stroke="#1A2E35" stroke-width="1.113" stroke-miterlimit="10" stroke-linecap="round" stroke-linejoin="round"/>
</g>
</g>
<mask id="mask8_2298_3740" style="mask-type:alpha" maskUnits="userSpaceOnUse" x="299" y="346" width="31" height="32">
<path d="M299 346H330V378H299V346Z" fill="black"/>
</mask>
<g mask="url(#mask8_2298_3740)">
<mask id="mask9_2298_3740" style="mask-type:alpha" maskUnits="userSpaceOnUse" x="258" y="345" width="73" height="72">
<path d="M258.965 381.082C258.965 400.855 274.996 416.887 294.77 416.887C314.547 416.887 330.574 400.855 330.574 381.082C330.574 361.305 314.547 345.273 294.77 345.273C274.996 345.273 258.965 361.305 258.965 381.082Z" fill="black"/>
</mask>
<g mask="url(#mask9_2298_3740)">
<path d="M327.402 376.449C328.297 374.418 328.93 372.629 329.367 371.145C327.859 365.977 325.223 361.293 321.738 357.375L319.02 366.613L321.738 357.375C319.539 354.898 316.996 352.738 314.195 350.949L311.137 362.359L314.195 350.949C311.297 349.102 308.117 347.656 304.73 346.699L300.457 358.664C306.949 359.684 317.105 363.547 327.402 376.449Z" stroke="#1A2E35" stroke-width="1.113" stroke-miterlimit="10" stroke-linecap="round" stroke-linejoin="round"/>
</g>
</g>
<mask id="mask10_2298_3740" style="mask-type:alpha" maskUnits="userSpaceOnUse" x="283" y="371" width="48" height="47">
<path d="M283 371H331V418H283V371Z" fill="black"/>
</mask>
<g mask="url(#mask10_2298_3740)">
<mask id="mask11_2298_3740" style="mask-type:alpha" maskUnits="userSpaceOnUse" x="258" y="346" width="73" height="72">
<path d="M258.965 382.082C258.965 401.855 274.996 417.887 294.77 417.887C314.547 417.887 330.574 401.855 330.574 382.082C330.574 362.305 314.547 346.273 294.77 346.273C274.996 346.273 258.965 362.305 258.965 382.082Z" fill="black"/>
</mask>
<g mask="url(#mask11_2298_3740)">
<path d="M330.77 383.77C330.789 383.254 330.809 382.734 330.809 382.211C330.809 378.715 330.301 375.34 329.367 372.145C328.93 373.629 328.297 375.418 327.402 377.453C327.414 377.465 327.426 377.477 327.438 377.492C327.426 377.477 327.414 377.465 327.402 377.453C326.77 378.883 326.809 378.867 325.883 380.508C325.938 380.566 325.023 382.023 325.078 382.078C325.023 382.023 324.125 383.879 324.07 383.824C321.691 388.051 314.516 396.148 314.629 396.148C314.516 396.148 310.754 399.559 308.695 401.277C308.723 401.277 308.75 401.273 308.777 401.273C308.75 401.273 308.723 401.277 308.695 401.277C305.293 404.121 301.355 406.961 296.809 409.727C296.895 409.711 296.984 409.703 297.07 409.684C296.984 409.703 296.895 409.711 296.809 409.727C293.027 412.031 288.801 414.277 284.121 416.426C287.535 417.504 291.164 418.086 294.934 418.086C295.539 418.086 296.137 418.07 296.734 418.043C303.98 414.102 315.645 404.957 330.77 383.77Z" stroke="#1A2E35" stroke-width="1.113" stroke-miterlimit="10" stroke-linecap="round" stroke-linejoin="round"/>
</g>
</g>
<mask id="mask12_2298_3740" style="mask-type:alpha" maskUnits="userSpaceOnUse" x="296" y="383" width="35" height="35">
<path d="M296 383H331V418H296V383Z" fill="black"/>
</mask>
<g mask="url(#mask12_2298_3740)">
<mask id="mask13_2298_3740" style="mask-type:alpha" maskUnits="userSpaceOnUse" x="258" y="346" width="73" height="72">
<path d="M258.965 382.082C258.965 401.855 274.996 417.887 294.77 417.887C314.547 417.887 330.574 401.855 330.574 382.082C330.574 362.305 314.547 346.273 294.77 346.273C274.996 346.273 258.965 362.305 258.965 382.082Z" fill="black"/>
</mask>
<g mask="url(#mask13_2298_3740)">
<path d="M330.77 383.77C315.645 404.957 303.98 414.102 296.734 418.043C315.195 417.129 329.977 402.262 330.77 383.77Z" stroke="#1A2E35" stroke-width="1.113" stroke-miterlimit="10" stroke-linecap="round" stroke-linejoin="round"/>
</g>
</g>
<mask id="mask14_2298_3740" style="mask-type:alpha" maskUnits="userSpaceOnUse" x="266" y="404" width="32" height="13">
<path d="M266 404H298V417H266V404Z" fill="black"/>
</mask>
<g mask="url(#mask14_2298_3740)">
<mask id="mask15_2298_3740" style="mask-type:alpha" maskUnits="userSpaceOnUse" x="258" y="346" width="73" height="72">
<path d="M258.965 382.082C258.965 401.855 274.996 417.887 294.77 417.887C314.547 417.887 330.574 401.855 330.574 382.082C330.574 362.305 314.547 346.273 294.77 346.273C274.996 346.273 258.965 362.305 258.965 382.082Z" fill="black"/>
</mask>
<g mask="url(#mask15_2298_3740)">
<path d="M266.891 404.574C271.281 410.074 277.254 414.258 284.121 416.426C288.801 414.277 293.027 412.031 296.809 409.727C288.27 411.305 274.914 407.391 266.891 404.574Z" stroke="#1A2E35" stroke-width="1.113" stroke-miterlimit="10" stroke-linecap="round" stroke-linejoin="round"/>
</g>
</g>
<mask id="mask16_2298_3740" style="mask-type:alpha" maskUnits="userSpaceOnUse" x="259" y="390" width="51" height="21">
<path d="M259 390H310V411H259V390Z" fill="black"/>
</mask>
<g mask="url(#mask16_2298_3740)">
<mask id="mask17_2298_3740" style="mask-type:alpha" maskUnits="userSpaceOnUse" x="258" y="346" width="73" height="72">
<path d="M258.965 382.082C258.965 401.855 274.996 417.887 294.77 417.887C314.547 417.887 330.574 401.855 330.574 382.082C330.574 362.305 314.547 346.273 294.77 346.273C274.996 346.273 258.965 362.305 258.965 382.082Z" fill="black"/>
</mask>
<g mask="url(#mask17_2298_3740)">
<path d="M296.809 409.726C301.355 406.961 305.293 404.121 308.695 401.277C282.91 403.918 267 395.933 260.246 391.39C261.535 396.269 263.828 400.742 266.891 404.574C274.914 407.39 288.27 411.304 296.809 409.726Z" stroke="#1A2E35" stroke-width="1.113" stroke-miterlimit="10" stroke-linecap="round" stroke-linejoin="round"/>
</g>
</g>
<mask id="mask18_2298_3740" style="mask-type:alpha" maskUnits="userSpaceOnUse" x="258" y="379" width="57" height="24">
<path d="M258 379H315V403H258V379Z" fill="black"/>
</mask>
<g mask="url(#mask18_2298_3740)">
<mask id="mask19_2298_3740" style="mask-type:alpha" maskUnits="userSpaceOnUse" x="258" y="346" width="73" height="72">
<path d="M258.965 382.082C258.965 401.855 274.996 417.887 294.77 417.887C314.547 417.887 330.574 401.855 330.574 382.082C330.574 362.305 314.547 346.273 294.77 346.273C274.996 346.273 258.965 362.305 258.965 382.082Z" fill="black"/>
</mask>
<g mask="url(#mask19_2298_3740)">
<path d="M308.695 401.278C310.754 399.559 312.605 397.844 314.289 396.145C313.645 396.145 313.023 396.129 312.395 396.117C312.531 396.25 312.668 396.379 312.801 396.516C312.668 396.379 312.531 396.25 312.395 396.117C297.66 395.906 286.457 393.633 278.047 390.641V390.66V390.641C265.758 386.383 261.332 381.797 259.148 379.754C259.094 380.567 259.055 381.383 259.055 382.211C259.055 385.383 259.473 388.461 260.246 391.387C267 395.934 282.91 403.918 308.695 401.278Z" stroke="#1A2E35" stroke-width="1.113" stroke-miterlimit="10" stroke-linecap="round" stroke-linejoin="round"/>
</g>
</g>
<path d="M330.574 382.082C330.574 362.309 314.547 346.273 294.77 346.273C274.996 346.273 258.965 362.309 258.965 382.082C258.965 401.855 274.996 417.887 294.77 417.887C314.547 417.887 330.574 401.855 330.574 382.082Z" stroke="#1A2E35" stroke-width="1.113" stroke-miterlimit="10" stroke-linecap="round" stroke-linejoin="round"/>
<path d="M360.73 320.886C360.73 320.886 358.281 312.929 351.141 310.07C346.18 308.086 340.465 308.605 335.324 309.5C325.746 311.168 317.383 314.976 308.297 318.234C308.297 318.234 312.176 316.804 328.09 324.558C333.949 327.41 340.652 329.629 347.355 329.476C352.738 329.359 360.988 327.824 360.73 320.886Z" fill="#009688"/>
<path d="M361.594 297.507C361.594 297.507 361.547 289.183 355.535 284.386C351.359 281.054 345.738 279.902 340.559 279.269C330.906 278.097 321.801 279.328 312.164 279.824C312.164 279.824 316.285 279.574 329.281 291.597C334.07 296.023 339.844 300.078 346.305 301.871C351.496 303.312 359.836 304.226 361.594 297.507Z" fill="#009688"/>
<path d="M378.043 328.422C378.043 328.422 371.551 323.211 371.527 315.52C371.516 310.176 374.102 305.055 376.828 300.605C381.91 292.316 388.535 285.945 394.91 278.703C394.91 278.703 392.152 281.781 393.492 299.434C393.984 305.934 393.574 312.98 390.965 319.152C388.867 324.113 384.398 331.219 378.043 328.422Z" fill="#009688"/>
<path d="M401.039 341.203C401.039 341.203 400.121 332.93 405.535 327.469C409.301 323.676 414.75 321.879 419.824 320.656C429.278 318.375 438.465 318.547 448.094 317.922C448.094 317.922 443.969 318.152 432.449 331.594C428.207 336.543 422.938 341.242 416.731 343.77C411.742 345.801 403.563 347.676 401.039 341.203Z" fill="#009688"/>
<path d="M399.531 311.711C399.531 311.711 391.285 310.578 387.317 303.992C384.555 299.414 384.149 293.691 384.203 288.473C384.305 278.746 386.715 269.883 388.469 260.395C388.469 260.395 387.68 264.449 397.899 278.906C401.66 284.23 404.926 290.488 405.856 297.125C406.606 302.461 406.422 310.848 399.531 311.711Z" fill="#009688"/>
<path d="M423.266 296.902C423.266 296.902 429.2 302.742 436.84 301.867C442.149 301.258 446.934 298.09 451.032 294.859C458.672 288.844 464.223 281.523 470.672 274.344C470.672 274.344 467.938 277.441 450.254 278.172C443.739 278.441 436.789 279.676 430.961 282.988C426.278 285.648 419.746 290.914 423.266 296.902Z" fill="#009688"/>
<path d="M416.399 291.129C416.399 291.129 424.68 291.961 430.086 286.488C433.84 282.684 435.578 277.219 436.754 272.133C438.934 262.656 438.672 253.473 439.195 243.836C439.195 243.836 439.004 247.965 425.684 259.617C420.777 263.91 416.133 269.23 413.672 275.465C411.692 280.473 409.902 288.672 416.399 291.129Z" fill="#009688"/>
<path d="M386.824 371.738L372.531 336.551L356.035 295.863" stroke="#1A2E35" stroke-width="1.113" stroke-miterlimit="10" stroke-linecap="round" stroke-linejoin="round"/>
<path d="M390.125 365.691L404.422 316.758L419.816 286.516" stroke="#1A2E35" stroke-width="1.113" stroke-miterlimit="10" stroke-linecap="round" stroke-linejoin="round"/>
<path d="M395.625 346.449L409.922 338.199" stroke="#1A2E35" stroke-width="1.113" stroke-miterlimit="10" stroke-linecap="round" stroke-linejoin="round"/>
<path d="M404.422 316.758L397.273 300.812" stroke="#1A2E35" stroke-width="1.113" stroke-miterlimit="10" stroke-linecap="round" stroke-linejoin="round"/>
<path d="M413.367 300.891L430.813 293.113" stroke="#1A2E35" stroke-width="1.113" stroke-miterlimit="10" stroke-linecap="round" stroke-linejoin="round"/>
<path d="M375.281 343.148L381.328 318.957" stroke="#1A2E35" stroke-width="1.113" stroke-miterlimit="10" stroke-linecap="round" stroke-linejoin="round"/>
<path d="M367.258 324.762L353.285 317.309" stroke="#1A2E35" stroke-width="1.113" stroke-miterlimit="10" stroke-linecap="round" stroke-linejoin="round"/>
<path d="M394.164 389.336H382.238C378.219 389.336 374.766 386.477 374.016 382.523L369.781 360.191H406.621L402.387 382.523C401.637 386.477 398.184 389.336 394.164 389.336Z" fill="#1A2E35"/>
<path d="M394.164 389.336H382.238C378.219 389.336 374.766 386.477 374.016 382.523L369.781 360.191H406.621L402.387 382.523C401.637 386.477 398.184 389.336 394.164 389.336Z" stroke="#1A2E35" stroke-width="1.113" stroke-miterlimit="10" stroke-linecap="round" stroke-linejoin="round"/>
<path d="M59.9141 263.004C59.9141 265.066 60.7266 266.59 62.8164 266.59C64.9375 266.59 65.7773 265.066 65.7773 263.004V253.117C65.7773 251.055 64.9375 249.531 62.8164 249.531C60.7266 249.531 59.9141 251.055 59.9141 253.117V263.004ZM58.6641 253.199C58.6641 250.43 59.9375 248.391 62.8164 248.391C65.7539 248.391 67.0273 250.43 67.0273 253.199V262.922C67.0273 265.691 65.7539 267.73 62.8164 267.73C59.9375 267.73 58.6641 265.691 58.6641 262.922" fill="#1A2E35"/>
<path d="M70.2617 263.004C70.2617 265.066 71.0781 266.59 73.168 266.59C75.2852 266.59 76.1289 265.066 76.1289 263.004V253.117C76.1289 251.055 75.2852 249.531 73.168 249.531C71.0781 249.531 70.2617 251.055 70.2617 253.117V263.004ZM69.0117 253.199C69.0117 250.43 70.2891 248.391 73.168 248.391C76.1016 248.391 77.3789 250.43 77.3789 253.199V262.922C77.3789 265.691 76.1016 267.73 73.168 267.73C70.2891 267.73 69.0117 265.691 69.0117 262.922" fill="#1A2E35"/>
<path d="M83.0547 258.605C85.2578 258.605 86.207 257.625 86.207 255.316V253.09C86.207 251.023 85.5 249.695 83.3828 249.695H80.6953V258.605H83.0547ZM83.3828 248.555C86.3164 248.555 87.457 250.398 87.457 253.172V255.234C87.457 258.25 86.0703 259.746 83.0547 259.746H80.6953V267.566H79.4453V248.555" fill="#1A2E35"/>
<path d="M97.3438 253.145V253.551H96.1523V253.062C96.1523 251.051 95.3906 249.531 93.3242 249.531C91.2617 249.531 90.5 251.023 90.5 253.035C90.5 257.652 97.3711 257.734 97.3711 262.977C97.3711 265.719 96.1797 267.73 93.2695 267.73C90.3672 267.73 89.1719 265.719 89.1719 262.977V261.996H90.3672V263.059C90.3672 265.094 91.1523 266.562 93.2422 266.562C95.3359 266.562 96.1211 265.094 96.1211 263.059C96.1211 258.496 89.25 258.414 89.25 253.117C89.25 250.266 90.5 248.418 93.3008 248.391C96.1797 248.391 97.3438 250.398 97.3438 253.145Z" fill="#1A2E35"/>
<path d="M99.2461 267.566H100.473V265.176H99.2461V267.566Z" fill="#1A2E35"/>
<path d="M102.645 267.566H103.867V265.176H102.645V267.566Z" fill="#1A2E35"/>
<path d="M106.039 267.566H107.262V265.176H106.039V267.566Z" fill="#1A2E35"/>
<path d="M62.3555 286.266C64.5547 286.266 65.5078 285.285 65.5078 282.98V280.754C65.5078 278.688 64.8008 277.355 62.6836 277.355H59.9961V286.266H62.3555ZM62.6836 276.215C65.6172 276.215 66.7578 278.063 66.7578 280.832V282.898C66.7578 285.91 65.3711 287.406 62.3555 287.406H59.9961V295.23H58.7461V276.215" fill="#1A2E35"/>
<path d="M70.2891 289.934H75.832L73.0312 277.629L70.2891 289.934ZM70.1016 291.02L69.1484 295.23H68.0078L72.1641 276.188H73.9844L78.2227 295.23H76.9727L76.0195 291.02" fill="#1A2E35"/>
<path d="M88.2188 280.859V282.273H87.0234V280.777C87.0234 278.742 86.2344 277.191 84.1445 277.191C82.0547 277.191 81.2656 278.742 81.2656 280.777V290.664C81.2656 292.703 82.0547 294.223 84.1445 294.223C86.2344 294.223 87.0234 292.703 87.0234 290.664V286.562H84.4961V285.422H88.2188V290.586C88.2188 293.328 87.0234 295.391 84.1172 295.391C81.2109 295.391 80.0156 293.328 80.0156 290.586V280.859C80.0156 278.117 81.2109 276.051 84.1172 276.051C87.0234 276.051 88.2188 278.117 88.2188 280.859Z" fill="#1A2E35"/>
<path d="M96.75 285.016V286.156H91.5586V294.086H97.8086V295.23H90.3125V276.215H97.8086V277.355H91.5586V285.016" fill="#1A2E35"/>
<path d="M105.195 295.23H104.055V276.215H105.688L111.391 292.27V276.215H112.531V295.23H111.145L105.195 278.281" fill="#1A2E35"/>
<path d="M115.848 290.664C115.848 292.73 116.66 294.25 118.754 294.25C120.871 294.25 121.715 292.73 121.715 290.664V280.777C121.715 278.715 120.871 277.191 118.754 277.191C116.66 277.191 115.848 278.715 115.848 280.777V290.664ZM114.598 280.859C114.598 278.09 115.875 276.055 118.754 276.055C121.688 276.055 122.961 278.09 122.961 280.859V290.586C122.961 293.355 121.688 295.391 118.754 295.391C115.875 295.391 114.598 293.355 114.598 290.586" fill="#1A2E35"/>
<path d="M128.234 295.23V277.355H124.379V276.215H133.367V277.355H129.484V295.23" fill="#1A2E35"/>
<path d="M145.293 285.477V286.617H140.379V295.23H139.129V276.215H146.352V277.355H140.379V285.477" fill="#1A2E35"/>
<path d="M149.422 290.664C149.422 292.73 150.238 294.25 152.328 294.25C154.445 294.25 155.289 292.73 155.289 290.664V280.777C155.289 278.715 154.445 277.191 152.328 277.191C150.238 277.191 149.422 278.715 149.422 280.777V290.664ZM148.172 280.859C148.172 278.09 149.449 276.055 152.328 276.055C155.262 276.055 156.539 278.09 156.539 280.859V290.586C156.539 293.355 155.262 295.391 152.328 295.391C149.449 295.391 148.172 293.355 148.172 290.586" fill="#1A2E35"/>
<path d="M159.801 290.641C159.801 292.676 160.562 294.25 162.652 294.25C164.746 294.25 165.504 292.676 165.504 290.641V276.215H166.672V290.586C166.672 293.301 165.531 295.391 162.625 295.391C159.719 295.391 158.551 293.301 158.551 290.586V276.215H159.801" fill="#1A2E35"/>
<path d="M169.961 295.23H168.82V276.215H170.449L176.152 292.27V276.215H177.293V295.23H175.91L169.961 278.281" fill="#1A2E35"/>
<path d="M183.598 294.09C185.715 294.09 186.586 292.648 186.586 290.559V280.887C186.586 278.797 185.688 277.355 183.598 277.355H180.691V294.09H183.598ZM183.625 276.215C186.559 276.215 187.836 278.145 187.836 280.941V290.504C187.836 293.301 186.559 295.23 183.625 295.23H179.441V276.215" fill="#1A2E35"/>
<path d="M231.153 342.281C208.887 342.281 195.512 322.527 190.758 305.156L190.598 304.547C189.692 301.054 191.785 297.484 195.282 296.578C198.774 295.676 202.34 297.765 203.25 301.258L203.367 301.711C206.985 314.933 216.813 330.043 232.578 329.172C238.867 328.816 243.934 326.344 248.063 321.613C256.711 311.703 260.578 290.125 259.719 279.246C259.489 276.371 261.637 273.851 264.516 273.621C267.414 273.394 269.91 275.543 270.141 278.422C271.102 290.523 269.821 316.558 257.907 330.211C251.434 337.625 243.16 341.664 233.317 342.219C232.586 342.262 231.864 342.281 231.153 342.281Z" fill="white"/>
<mask id="mask20_2298_3740" style="mask-type:alpha" maskUnits="userSpaceOnUse" x="206" y="273" width="65" height="70">
<path d="M206 273H271V343H206V273Z" fill="black"/>
</mask>
<g mask="url(#mask20_2298_3740)">
<mask id="mask21_2298_3740" style="mask-type:alpha" maskUnits="userSpaceOnUse" x="190" y="273" width="81" height="70">
<path d="M264.516 273.621C261.637 273.852 259.489 276.371 259.719 279.246C260.578 290.125 256.711 311.703 248.063 321.617C243.934 326.344 238.867 328.816 232.578 329.172C216.813 330.043 206.985 314.934 203.367 301.711L203.25 301.258C202.34 297.766 198.774 295.676 195.282 296.578C191.785 297.484 189.692 301.055 190.598 304.547L190.758 305.156C195.512 322.527 208.887 342.281 231.153 342.281C231.864 342.281 232.586 342.262 233.317 342.219C243.16 341.664 251.434 337.625 257.907 330.211C269.824 316.559 271.102 290.523 270.141 278.422C269.922 275.684 267.653 273.605 264.938 273.605C264.797 273.605 264.657 273.613 264.516 273.621Z" fill="black"/>
</mask>
<g mask="url(#mask21_2298_3740)">
<path d="M264.516 273.621C261.637 273.851 259.488 276.367 259.719 279.246C260.137 284.558 259.43 292.414 257.59 300.219C259.852 300.109 262.445 300.359 265.355 301.23C264.934 306.57 263.254 314.422 257.727 322.097C248.016 335.586 233.445 339.902 222.117 338.285C217.051 337.562 211.234 334.894 206.348 332.172C212.813 338.222 221.066 342.281 231.152 342.281C231.863 342.281 232.586 342.262 233.316 342.219C243.16 341.664 251.434 337.625 257.906 330.211C269.824 316.562 271.102 290.523 270.141 278.422C269.91 275.543 267.414 273.394 264.516 273.621Z" fill="#009688"/>
</g>
</g>
<path d="M231.153 342.281C208.887 342.281 195.512 322.527 190.758 305.156L190.598 304.547C189.692 301.055 191.785 297.484 195.282 296.578C198.774 295.676 202.34 297.766 203.25 301.258L203.367 301.711C206.985 314.934 216.813 330.043 232.578 329.172C238.867 328.816 243.934 326.344 248.063 321.613C256.711 311.703 260.578 290.125 259.719 279.246C259.489 276.371 261.637 273.852 264.516 273.621C267.414 273.395 269.91 275.543 270.141 278.422C271.102 290.523 269.821 316.559 257.907 330.211C251.434 337.625 243.16 341.664 233.317 342.219C232.586 342.262 231.864 342.281 231.153 342.281Z" stroke="#1A2E35" stroke-width="1.113" stroke-miterlimit="10" stroke-linecap="round" stroke-linejoin="round"/>
<path d="M218.312 328.746C218.836 326.297 212.977 330.133 208.066 333.699C209.883 335.227 211.832 336.594 213.91 337.766C215.66 334.922 217.805 331.114 218.312 328.746Z" fill="#009688"/>
<path d="M218.313 328.746C218.836 326.297 212.977 330.133 208.066 333.699C209.883 335.227 211.832 336.594 213.91 337.766C215.66 334.922 217.805 331.113 218.313 328.746Z" stroke="#1A2E35" stroke-width="1.113" stroke-miterlimit="10" stroke-linecap="round" stroke-linejoin="round"/>
<path d="M231.152 342.281C231.863 342.281 232.586 342.262 233.316 342.219C235.5 342.097 237.602 341.793 239.629 341.328C236.867 337.726 233.074 332.972 231.977 332.609C230.727 332.191 228.316 338.324 226.984 342.043C228.336 342.199 229.727 342.281 231.152 342.281Z" fill="#009688"/>
<path d="M231.152 342.281C231.863 342.281 232.586 342.262 233.316 342.219C235.5 342.098 237.602 341.793 239.629 341.328C236.867 337.727 233.074 332.973 231.977 332.609C230.727 332.191 228.316 338.324 226.984 342.043C228.336 342.199 229.727 342.281 231.152 342.281Z" stroke="#1A2E35" stroke-width="1.113" stroke-miterlimit="10" stroke-linecap="round" stroke-linejoin="round"/>
<path d="M203.367 301.711L203.246 301.258C202.34 297.766 198.774 295.676 195.282 296.578C191.785 297.484 189.692 301.055 190.598 304.547L190.758 305.156C192.336 310.926 194.871 316.949 198.36 322.434L210.27 316.762C207.063 312.141 204.758 306.789 203.367 301.711Z" fill="#009688"/>
<path d="M203.367 301.711L203.246 301.258C202.34 297.766 198.774 295.676 195.282 296.578C191.785 297.484 189.692 301.055 190.598 304.547L190.758 305.156C192.336 310.926 194.871 316.949 198.36 322.434L210.27 316.762C207.063 312.141 204.758 306.789 203.367 301.711Z" stroke="#1A2E35" stroke-width="1.113" stroke-miterlimit="10" stroke-linecap="round" stroke-linejoin="round"/>
<path d="M257.907 330.211C258.817 329.168 259.66 328.047 260.45 326.867C256.672 325.578 251.012 323.805 248.907 323.992C246.414 324.223 249.797 332.219 251.543 336.004C253.825 334.383 255.95 332.453 257.907 330.211Z" fill="#009688"/>
<path d="M257.907 330.211C258.817 329.168 259.66 328.047 260.45 326.867C256.672 325.578 251.012 323.805 248.907 323.992C246.414 324.223 249.797 332.219 251.543 336.004C253.825 334.383 255.95 332.453 257.907 330.211Z" stroke="#1A2E35" stroke-width="1.113" stroke-miterlimit="10" stroke-linecap="round" stroke-linejoin="round"/>
<path d="M258.118 308.844C257.719 309.637 262.61 313.203 265.911 315.492C266.961 312.402 267.789 309.191 268.434 305.973C264.43 306.766 258.508 308.062 258.118 308.844Z" fill="#009688"/>
<path d="M258.118 308.844C257.719 309.637 262.61 313.203 265.911 315.492C266.961 312.402 267.789 309.191 268.434 305.973C264.43 306.766 258.508 308.062 258.118 308.844Z" stroke="#1A2E35" stroke-width="1.113" stroke-miterlimit="10" stroke-linecap="round" stroke-linejoin="round"/>
<path d="M270.051 294.051C270.273 291.199 270.379 288.48 270.391 285.977C266.953 287.875 262.867 290.488 262.867 292.211C262.867 293.871 266.691 294.141 270.051 294.051Z" fill="#009688"/>
<path d="M270.051 294.051C270.273 291.2 270.379 288.481 270.391 285.977C266.953 287.875 262.867 290.489 262.867 292.211C262.867 293.871 266.691 294.141 270.051 294.051Z" stroke="#1A2E35" stroke-width="1.113" stroke-miterlimit="10" stroke-linecap="round" stroke-linejoin="round"/>
<path d="M216.207 216.68C216.207 216.68 206.504 244.801 211.731 266.699C216.954 288.598 236.118 295.812 236.118 295.812C236.118 295.812 221.934 300.789 225.164 308.504C228.403 316.219 240.594 311.242 244.579 308.754C248.559 306.266 253.536 298.801 254.282 293.824C255.028 288.848 254.778 286.109 254.778 286.109C254.778 286.109 270.954 284.367 281.903 275.41C281.903 275.41 291.61 283.121 298.575 281.629C305.543 280.137 315.496 267.695 314.504 256.496C313.508 245.297 307.036 245.297 303.055 247.039C299.075 248.781 297.582 250.523 297.582 250.523C297.582 250.523 303.305 243.555 297.582 233.852C291.856 224.144 281.653 223.398 281.653 223.398C281.653 223.398 278.668 207.473 269.711 201.5C260.754 195.527 228.899 189.309 216.207 216.68Z" fill="white"/>
<mask id="mask22_2298_3740" style="mask-type:alpha" maskUnits="userSpaceOnUse" x="210" y="196" width="105" height="117">
<path d="M210 196H315V313H210V196Z" fill="black"/>
</mask>
<g mask="url(#mask22_2298_3740)">
<mask id="mask23_2298_3740" style="mask-type:alpha" maskUnits="userSpaceOnUse" x="210" y="196" width="105" height="117">
<path d="M216.207 216.68C216.207 216.68 206.504 244.801 211.73 266.699C216.953 288.598 236.117 295.812 236.117 295.812C236.117 295.812 221.933 300.789 225.168 308.504C228.402 316.219 240.594 311.242 244.578 308.754C248.558 306.266 253.535 298.801 254.281 293.824C255.027 288.848 254.777 286.109 254.777 286.109C254.777 286.109 270.953 284.367 281.902 275.41C281.902 275.41 291.609 283.121 298.574 281.629C305.543 280.137 315.496 267.695 314.504 256.496C313.508 245.297 307.035 245.297 303.055 247.039C299.074 248.781 297.582 250.523 297.582 250.523C297.582 250.523 303.305 243.555 297.582 233.852C291.855 224.145 281.652 223.398 281.652 223.398C281.652 223.398 278.668 207.473 269.711 201.5C265.879 198.949 257.867 196.348 248.953 196.348C237.019 196.348 223.473 201.008 216.207 216.68Z" fill="black"/>
</mask>
<g mask="url(#mask23_2298_3740)">
<path d="M303.055 247.039C299.074 248.781 297.582 250.523 297.582 250.523C297.582 250.523 299.309 248.402 299.914 244.883C286.465 251.578 287.512 265.902 285.84 265.902C283.785 265.902 282.758 258.711 282.758 258.711C282.758 258.711 280.188 268.984 264.777 276.176C249.367 283.367 231.902 277.719 231.902 277.719C231.902 277.719 235.496 285.937 226.25 284.906C223.129 284.562 220.781 283.508 219.023 282.266C226.488 292.18 236.117 295.812 236.117 295.812C236.117 295.812 221.934 300.789 225.168 308.504C228.402 316.219 240.598 311.242 244.578 308.754C248.559 306.266 253.535 298.801 254.281 293.824C255.027 288.848 254.781 286.109 254.781 286.109C254.781 286.109 270.953 284.367 281.902 275.406C281.902 275.406 291.609 283.121 298.578 281.629C305.543 280.137 315.496 267.695 314.504 256.496C313.508 245.297 307.035 245.297 303.055 247.039ZM290.145 226.352C283.094 238.098 268.789 251.602 246.285 253.574C226.48 255.312 215.383 251.41 210.266 248.703C210.953 231.922 216.207 216.68 216.207 216.68C228.898 189.309 260.754 195.527 269.711 201.5C278.668 207.473 281.656 223.398 281.656 223.398C281.656 223.398 285.711 223.703 290.145 226.352Z" fill="#009688"/>
</g>
</g>
<mask id="mask24_2298_3740" style="mask-type:alpha" maskUnits="userSpaceOnUse" x="226" y="272" width="30" height="15">
<path d="M226 272H256V287H226V272Z" fill="black"/>
</mask>
<g mask="url(#mask24_2298_3740)">
<mask id="mask25_2298_3740" style="mask-type:alpha" maskUnits="userSpaceOnUse" x="210" y="196" width="105" height="117">
<path d="M216.207 216.68C216.207 216.68 206.504 244.801 211.73 266.699C216.953 288.598 236.117 295.812 236.117 295.812C236.117 295.812 221.933 300.789 225.168 308.504C228.402 316.219 240.594 311.242 244.578 308.754C248.558 306.266 253.535 298.801 254.281 293.824C255.027 288.848 254.777 286.109 254.777 286.109C254.777 286.109 270.953 284.367 281.902 275.41C281.902 275.41 291.609 283.121 298.574 281.629C305.543 280.137 315.496 267.695 314.504 256.496C313.508 245.297 307.035 245.297 303.055 247.039C299.074 248.781 297.582 250.523 297.582 250.523C297.582 250.523 303.305 243.555 297.582 233.852C291.855 224.145 281.652 223.398 281.652 223.398C281.652 223.398 278.668 207.473 269.711 201.5C265.879 198.949 257.867 196.348 248.953 196.348C237.019 196.348 223.473 201.008 216.207 216.68Z" fill="black"/>
</mask>
<g mask="url(#mask25_2298_3740)">
<path d="M254.777 286.109C254.777 286.109 238.215 287.457 226.629 273.199" stroke="#1A2E35" stroke-width="1.113" stroke-miterlimit="10" stroke-linecap="round" stroke-linejoin="round"/>
</g>
</g>
<path d="M216.207 216.68C216.207 216.68 206.504 244.801 211.731 266.699C216.954 288.598 236.118 295.813 236.118 295.813C236.118 295.813 221.934 300.789 225.164 308.504C228.403 316.219 240.594 311.242 244.579 308.754C248.559 306.266 253.536 298.801 254.282 293.824C255.028 288.848 254.778 286.11 254.778 286.11C254.778 286.11 270.954 284.367 281.903 275.41C281.903 275.41 291.61 283.121 298.575 281.629C305.543 280.137 315.496 267.696 314.504 256.496C313.508 245.297 307.036 245.297 303.055 247.039C299.075 248.781 297.582 250.524 297.582 250.524C297.582 250.524 303.305 243.555 297.582 233.852C291.856 224.145 281.653 223.399 281.653 223.399C281.653 223.399 278.668 207.473 269.711 201.5C260.754 195.528 228.899 189.309 216.207 216.68Z" stroke="#1A2E35" stroke-width="1.113" stroke-miterlimit="10" stroke-linecap="round" stroke-linejoin="round"/>
<path d="M297.582 250.523C297.582 250.523 292.355 254.008 289.867 264.707" stroke="#1A2E35" stroke-width="1.113" stroke-miterlimit="10" stroke-linecap="round" stroke-linejoin="round"/>
<path d="M307.172 255.101C306.559 256.922 304.895 258.008 303.453 257.519C302.016 257.035 301.348 255.164 301.961 253.34C302.574 251.519 304.242 250.433 305.68 250.922C307.117 251.406 307.785 253.277 307.172 255.101Z" fill="white"/>
<path d="M307.172 255.102C306.559 256.922 304.895 258.008 303.453 257.52C302.016 257.035 301.348 255.164 301.961 253.34C302.574 251.52 304.242 250.434 305.68 250.922C307.117 251.407 307.785 253.278 307.172 255.102Z" stroke="#1A2E35" stroke-width="1.113" stroke-miterlimit="10" stroke-linecap="round" stroke-linejoin="round"/>
<path d="M312.321 258.34C311.704 260.16 310.039 261.246 308.602 260.762C307.164 260.277 306.493 258.402 307.11 256.582C307.723 254.758 309.391 253.672 310.829 254.156C312.266 254.645 312.934 256.516 312.321 258.34Z" fill="white"/>
<path d="M312.321 258.34C311.704 260.16 310.039 261.246 308.602 260.762C307.164 260.277 306.493 258.402 307.11 256.582C307.723 254.758 309.391 253.672 310.829 254.156C312.266 254.644 312.934 256.516 312.321 258.34Z" stroke="#1A2E35" stroke-width="1.113" stroke-miterlimit="10" stroke-linecap="round" stroke-linejoin="round"/>
<path d="M313.418 263.188C312.973 264.512 311.762 265.297 310.719 264.946C309.672 264.594 309.188 263.235 309.633 261.91C310.079 260.586 311.289 259.797 312.336 260.153C313.379 260.504 313.864 261.864 313.418 263.188Z" fill="white"/>
<path d="M313.418 263.188C312.973 264.512 311.762 265.297 310.719 264.945C309.672 264.594 309.188 263.234 309.633 261.91C310.079 260.586 311.289 259.797 312.336 260.152C313.379 260.504 313.864 261.863 313.418 263.188Z" stroke="#1A2E35" stroke-width="1.113" stroke-miterlimit="10" stroke-linecap="round" stroke-linejoin="round"/>
<path d="M306.848 269.847C305.051 273.093 301.449 274.539 298.805 273.074C296.16 271.609 295.473 267.789 297.27 264.543C299.071 261.296 302.672 259.855 305.317 261.32C307.961 262.785 308.649 266.605 306.848 269.847Z" fill="white"/>
<path d="M306.848 269.848C305.051 273.094 301.449 274.539 298.805 273.074C296.16 271.61 295.473 267.789 297.27 264.543C299.071 261.297 302.672 259.856 305.317 261.32C307.961 262.785 308.649 266.606 306.848 269.848Z" stroke="#1A2E35" stroke-width="1.113" stroke-miterlimit="10" stroke-linecap="round" stroke-linejoin="round"/>
<path d="M236.117 295.813C236.117 295.813 240.594 298.301 246.816 296.563" stroke="#1A2E35" stroke-width="1.113" stroke-miterlimit="10" stroke-linecap="round" stroke-linejoin="round"/>
<path d="M225.164 308.504C225.164 308.504 226.164 304.273 232.383 301.289" stroke="#1A2E35" stroke-width="1.113" stroke-miterlimit="10" stroke-linecap="round" stroke-linejoin="round"/>
<path d="M231.387 312.238C231.387 312.238 233.875 306.266 238.105 303.527" stroke="#1A2E35" stroke-width="1.113" stroke-miterlimit="10" stroke-linecap="round" stroke-linejoin="round"/>
<path d="M130.039 196.938V114.535L78.75 196.938H130.039ZM133.258 243.395C131.109 241.68 130.039 239.32 130.039 236.312V212.602H68.8789C65.5898 212.602 62.9258 211.492 60.8867 209.277C58.8477 207.059 57.8281 204.449 57.8281 201.441C57.8281 199.082 58.5078 196.867 59.8672 194.789L118.449 102.734C122.812 95.9375 128.645 92.5391 135.938 92.5391C140.23 92.5391 143.809 93.793 146.668 96.2969C149.527 98.8008 150.961 102.52 150.961 107.453V196.938H166.516C169.02 196.938 170.953 197.707 172.312 199.242C173.668 200.781 174.352 202.625 174.352 204.77C174.352 206.914 173.668 208.758 172.312 210.297C170.953 211.836 169.02 212.602 166.516 212.602H150.852V236.312C150.852 239.32 149.816 241.68 147.742 243.395C145.664 245.113 143.27 245.969 140.555 245.969C137.832 245.969 135.402 245.113 133.258 243.395Z" fill="#1A2E35"/>
<path d="M250.691 228.75C253.871 227.355 256.555 225.531 258.738 223.277C260.918 221.023 262.816 218.219 264.426 214.855C266.031 211.492 267.305 208.094 268.234 204.66C269.16 201.23 269.898 197.352 270.434 193.02C270.969 188.691 271.324 184.727 271.508 181.109C271.684 177.5 271.773 173.586 271.773 169.363C271.773 164.93 271.684 160.832 271.508 157.078C271.324 153.324 270.949 149.281 270.379 144.953C269.805 140.625 269.055 136.746 268.125 133.312C267.195 129.879 265.926 126.52 264.316 123.227C262.707 119.938 260.813 117.184 258.633 114.965C256.449 112.746 253.781 110.98 250.637 109.652C247.488 108.328 243.949 107.668 240.016 107.668C236.078 107.668 232.539 108.328 229.391 109.652C226.242 110.98 223.598 112.73 221.453 114.91C219.305 117.094 217.41 119.828 215.766 123.121C214.117 126.41 212.852 129.77 211.957 133.203C211.063 136.637 210.328 140.535 209.758 144.898C209.184 149.266 208.809 153.324 208.633 157.078C208.449 160.832 208.363 164.93 208.363 169.363C208.363 173.586 208.449 177.52 208.633 181.164C208.809 184.813 209.168 188.801 209.703 193.129C210.238 197.457 210.973 201.336 211.902 204.77C212.832 208.203 214.102 211.602 215.711 214.961C217.32 218.324 219.199 221.113 221.344 223.332C223.492 225.551 226.156 227.355 229.34 228.75C232.52 230.145 236.078 230.844 240.016 230.844C243.949 230.844 247.508 230.145 250.691 228.75ZM218.125 243.879C211.758 240.98 206.594 237.117 202.621 232.289C198.652 227.461 195.398 221.578 192.859 214.641C190.316 207.703 188.547 200.586 187.547 193.289C186.547 185.992 186.047 178.02 186.047 169.363C186.047 116.645 204.035 90.2852 240.016 90.2852C275.922 90.2852 293.879 116.645 293.879 169.363C293.879 177.945 293.395 185.887 292.43 193.184C291.461 200.477 289.711 207.598 287.172 214.535C284.633 221.473 281.379 227.355 277.406 232.184C273.438 237.012 268.27 240.895 261.902 243.824C255.535 246.758 248.238 248.223 240.016 248.223C231.789 248.223 224.492 246.773 218.125 243.879Z" fill="#1A2E35"/>
<path d="M383.359 196.938V114.535L332.07 196.938H383.359ZM386.578 243.395C384.434 241.68 383.359 239.32 383.359 236.312V212.602H322.203C318.91 212.602 316.246 211.492 314.211 209.277C312.172 207.059 311.152 204.449 311.152 201.441C311.152 199.082 311.828 196.867 313.188 194.789L371.773 102.734C376.133 95.9375 381.965 92.5391 389.262 92.5391C393.551 92.5391 397.129 93.793 399.988 96.2969C402.852 98.8008 404.281 102.52 404.281 107.453V196.938H419.84C422.34 196.938 424.273 197.707 425.633 199.242C426.992 200.781 427.672 202.625 427.672 204.77C427.672 206.914 426.992 208.758 425.633 210.297C424.273 211.836 422.34 212.602 419.84 212.602H404.172V236.312C404.172 239.32 403.137 241.68 401.062 243.395C398.988 245.113 396.59 245.969 393.875 245.969C391.152 245.969 388.723 245.113 386.578 243.395Z" fill="#1A2E35"/>
<path d="M196.051 202.496C196.051 202.496 185.602 217.18 184.106 232.11C182.613 247.039 184.356 256.996 188.836 260.727C193.317 264.461 197.793 262.965 200.281 259.481C202.77 255.996 198.789 243.805 198.789 243.805C198.789 243.805 203.02 232.11 209.488 223.899C215.961 215.684 217.203 214.442 217.203 214.442C217.203 214.442 206.008 201.75 196.051 202.496Z" fill="white"/>
<mask id="mask26_2298_3740" style="mask-type:alpha" maskUnits="userSpaceOnUse" x="189" y="202" width="29" height="25">
<path d="M189 202H218V227H189V202Z" fill="black"/>
</mask>
<g mask="url(#mask26_2298_3740)">
<mask id="mask27_2298_3740" style="mask-type:alpha" maskUnits="userSpaceOnUse" x="183" y="202" width="35" height="61">
<path d="M196.051 202.496C196.051 202.496 185.602 217.18 184.106 232.109C182.613 247.039 184.356 256.992 188.836 260.727C193.317 264.461 197.793 262.965 200.281 259.48C202.77 255.996 198.789 243.805 198.789 243.805C198.789 243.805 203.02 232.109 209.488 223.898C215.961 215.687 217.203 214.441 217.203 214.441C217.203 214.441 206.637 202.465 196.906 202.465C196.621 202.465 196.336 202.477 196.051 202.496Z" fill="black"/>
</mask>
<g mask="url(#mask27_2298_3740)">
<path d="M196.051 202.496C196.051 202.496 193.004 206.786 189.961 213.079C194.957 215.094 202.711 219.184 207.629 226.438C208.227 225.567 208.848 224.715 209.488 223.899C215.961 215.684 217.203 214.442 217.203 214.442C217.203 214.442 206.008 201.75 196.051 202.496Z" fill="#009688"/>
</g>
</g>
<path d="M196.051 202.496C196.051 202.496 185.602 217.179 184.106 232.109C182.613 247.039 184.356 256.996 188.836 260.726C193.317 264.461 197.793 262.965 200.281 259.48C202.77 255.996 198.789 243.804 198.789 243.804C198.789 243.804 203.02 232.109 209.488 223.898C215.961 215.683 217.203 214.441 217.203 214.441C217.203 214.441 206.008 201.75 196.051 202.496Z" stroke="#1A2E35" stroke-width="1.113" stroke-miterlimit="10" stroke-linecap="round" stroke-linejoin="round"/>
<path d="M188.836 260.727C188.836 260.727 187.094 256.746 187.094 250.523" stroke="#1A2E35" stroke-width="1.113" stroke-miterlimit="10" stroke-linecap="round" stroke-linejoin="round"/>
<path d="M195.555 262.219C195.555 262.219 193.066 257.988 192.816 250.773" stroke="#1A2E35" stroke-width="1.113" stroke-miterlimit="10" stroke-linecap="round" stroke-linejoin="round"/>
<path d="M199.285 229.121C199.285 226.5 194.289 221.379 187.336 219.164C186.437 221.535 185.633 224.051 185.031 226.629C186.906 226.984 190.266 227.762 192.816 229.121C196.551 231.113 199.285 232.109 199.285 229.121Z" fill="#009688"/>
<path d="M199.285 229.121C199.285 226.5 194.289 221.379 187.336 219.164C186.438 221.535 185.633 224.051 185.031 226.629C186.906 226.984 190.266 227.761 192.816 229.121C196.551 231.113 199.285 232.109 199.285 229.121Z" stroke="#1A2E35" stroke-width="1.113" stroke-miterlimit="10" stroke-linecap="round" stroke-linejoin="round"/>
<path d="M195.445 203.391C194.574 204.703 192.867 207.395 191.027 210.945C192.867 211.43 194.906 212.203 197.047 213.445C204.762 217.926 206.254 218.422 203.766 211.953C202.215 207.926 198.641 205.152 195.445 203.391Z" fill="#009688"/>
<path d="M195.445 203.39C194.574 204.703 192.867 207.394 191.027 210.945C192.867 211.429 194.906 212.203 197.047 213.445C204.762 217.926 206.254 218.422 203.766 211.953C202.215 207.926 198.641 205.152 195.445 203.39Z" stroke="#1A2E35" stroke-width="1.113" stroke-miterlimit="10" stroke-linecap="round" stroke-linejoin="round"/>
<path d="M277.898 195.246C277.898 195.246 289.742 208.836 292.691 223.547C295.645 238.258 294.887 248.336 290.797 252.492C286.703 256.645 282.098 255.598 279.281 252.371C276.465 249.152 279.23 236.625 279.23 236.625C279.23 236.625 273.871 225.402 266.629 217.863C259.383 210.328 258.023 209.211 258.023 209.211C258.023 209.211 267.922 195.48 277.898 195.246Z" fill="white"/>
<mask id="mask28_2298_3740" style="mask-type:alpha" maskUnits="userSpaceOnUse" x="258" y="195" width="29" height="28">
<path d="M258 195H287V223H258V195Z" fill="black"/>
</mask>
<g mask="url(#mask28_2298_3740)">
<mask id="mask29_2298_3740" style="mask-type:alpha" maskUnits="userSpaceOnUse" x="258" y="195" width="37" height="61">
<path d="M258.023 209.211C258.023 209.211 259.383 210.324 266.629 217.863C273.871 225.402 279.23 236.625 279.23 236.625C279.23 236.625 276.461 249.152 279.281 252.375C282.098 255.598 286.703 256.645 290.793 252.488C294.887 248.336 295.645 238.258 292.691 223.547C289.742 208.836 277.898 195.246 277.898 195.246C267.922 195.48 258.023 209.211 258.023 209.211Z" fill="black"/>
</mask>
<g mask="url(#mask29_2298_3740)">
<path d="M277.898 195.246C267.922 195.48 258.023 209.211 258.023 209.211C258.023 209.211 259.383 210.328 266.629 217.863C267.977 219.27 269.258 220.797 270.453 222.359C272.988 218.133 277.973 211.477 286.113 207.062C282.098 200.062 277.898 195.246 277.898 195.246Z" fill="#009688"/>
</g>
</g>
<path d="M277.898 195.246C277.898 195.246 289.742 208.836 292.691 223.547C295.645 238.258 294.887 248.336 290.797 252.492C286.703 256.644 282.098 255.598 279.281 252.371C276.465 249.152 279.23 236.625 279.23 236.625C279.23 236.625 273.871 225.402 266.629 217.863C259.383 210.328 258.023 209.211 258.023 209.211C258.023 209.211 267.922 195.48 277.898 195.246Z" stroke="#1A2E35" stroke-width="1.113" stroke-miterlimit="10" stroke-linecap="round" stroke-linejoin="round"/>
<path d="M290.793 252.488C290.793 252.488 292.137 248.355 291.527 242.164" stroke="#1A2E35" stroke-width="1.113" stroke-miterlimit="10" stroke-linecap="round" stroke-linejoin="round"/>
<path d="M284.254 254.637C284.254 254.637 286.316 250.18 285.855 242.977" stroke="#1A2E35" stroke-width="1.113" stroke-miterlimit="10" stroke-linecap="round" stroke-linejoin="round"/>
<path d="M277.293 222.062C277.035 219.453 281.508 213.867 288.211 210.98C289.34 213.254 290.387 215.676 291.235 218.184C289.403 218.723 286.137 219.824 283.731 221.43C280.211 223.777 277.586 225.035 277.293 222.062Z" fill="#009688"/>
<path d="M277.293 222.062C277.035 219.453 281.508 213.867 288.211 210.98C289.34 213.254 290.387 215.675 291.235 218.183C289.403 218.722 286.137 219.824 283.731 221.429C280.211 223.777 277.586 225.035 277.293 222.062Z" stroke="#1A2E35" stroke-width="1.113" stroke-miterlimit="10" stroke-linecap="round" stroke-linejoin="round"/>
<path d="M278.594 196.078C279.59 197.301 281.551 199.813 283.731 203.164C281.945 203.824 279.992 204.793 277.984 206.242C270.746 211.457 269.309 212.098 271.152 205.414C272.297 201.254 275.582 198.145 278.594 196.078Z" fill="#009688"/>
<path d="M278.594 196.078C279.59 197.301 281.551 199.812 283.731 203.164C281.945 203.824 279.992 204.793 277.984 206.242C270.746 211.457 269.309 212.097 271.152 205.414C272.297 201.254 275.582 198.144 278.594 196.078Z" stroke="#1A2E35" stroke-width="1.113" stroke-miterlimit="10" stroke-linecap="round" stroke-linejoin="round"/>
<path d="M195.071 189.797C195.071 189.797 191.992 200.192 193.149 204.426C194.301 208.661 199.692 204.809 205.078 209.43C210.469 214.047 215.465 222.356 235.867 223.899C256.27 225.438 268.598 214.434 272.832 208.274C277.067 202.114 276.68 194.801 283.992 194.415C291.309 194.032 285.149 179.79 282.84 177.481C282.84 177.481 297.082 156.305 297.082 150.918C297.082 145.528 283.61 146.684 267.059 151.688C267.059 151.688 254.739 145.141 232.41 148.993C210.086 152.84 203.539 159.387 203.539 159.387C203.539 159.387 175.824 162.852 173.899 166.317C171.977 169.778 177.75 184.407 195.071 189.797Z" fill="white"/>
<mask id="mask30_2298_3740" style="mask-type:alpha" maskUnits="userSpaceOnUse" x="173" y="163" width="116" height="62">
<path d="M173 163H289V225H173V163Z" fill="black"/>
</mask>
<g mask="url(#mask30_2298_3740)">
<mask id="mask31_2298_3740" style="mask-type:alpha" maskUnits="userSpaceOnUse" x="173" y="147" width="125" height="78">
<path d="M267.058 151.688C267.058 151.688 254.738 145.145 232.41 148.992C210.086 152.844 203.539 159.387 203.539 159.387C203.539 159.387 175.824 162.852 173.898 166.316C171.976 169.777 177.75 184.406 195.07 189.797C195.07 189.797 191.992 200.191 193.148 204.426C194.301 208.66 199.691 204.809 205.078 209.43C210.469 214.047 215.465 222.355 235.867 223.898C256.269 225.437 268.597 214.434 272.832 208.273C277.066 202.113 276.679 194.801 283.992 194.414C291.308 194.031 285.148 179.789 282.84 177.477C282.84 177.477 297.082 156.305 297.082 150.918C297.082 148.469 294.304 147.371 289.719 147.371C284.207 147.371 276.09 148.957 267.058 151.688Z" fill="black"/>
</mask>
<g mask="url(#mask31_2298_3740)">
<path d="M283.992 194.415C291.309 194.032 285.148 179.79 282.84 177.477C282.84 177.477 285.547 173.454 288.602 168.465C280.324 164.141 272.207 161.739 270.047 164.172C265.402 169.395 267.934 179.395 270.047 189.118C272.16 198.844 263.703 203.071 257.781 211.528C251.863 219.985 243.406 210.684 243.406 210.684C240.445 222.946 227.762 214.911 227.762 214.911C218.035 211.954 201.547 202.227 204.93 195.461C208.312 188.696 209.156 182.352 203.238 176.856C197.316 171.36 173.707 166.801 173.707 166.801C172.473 170.969 178.457 184.629 195.07 189.797C195.07 189.797 191.992 200.192 193.148 204.426C194.301 208.661 199.691 204.809 205.078 209.43C210.469 214.047 215.465 222.356 235.867 223.899C256.27 225.438 268.598 214.434 272.832 208.274C277.066 202.114 276.68 194.801 283.992 194.415Z" fill="#009688"/>
</g>
</g>
<mask id="mask32_2298_3740" style="mask-type:alpha" maskUnits="userSpaceOnUse" x="228" y="193" width="26" height="10">
<path d="M228 193H254V203H228V193Z" fill="black"/>
</mask>
<g mask="url(#mask32_2298_3740)">
<mask id="mask33_2298_3740" style="mask-type:alpha" maskUnits="userSpaceOnUse" x="173" y="147" width="125" height="78">
<path d="M267.058 151.688C267.058 151.688 254.738 145.145 232.41 148.992C210.086 152.844 203.539 159.387 203.539 159.387C203.539 159.387 175.824 162.852 173.898 166.316C171.976 169.777 177.75 184.406 195.07 189.797C195.07 189.797 191.992 200.191 193.148 204.426C194.301 208.66 199.691 204.809 205.078 209.43C210.469 214.047 215.465 222.355 235.867 223.898C256.269 225.437 268.597 214.434 272.832 208.273C277.066 202.113 276.679 194.801 283.992 194.414C291.308 194.031 285.148 179.789 282.84 177.477C282.84 177.477 297.082 156.305 297.082 150.918C297.082 148.469 294.304 147.371 289.719 147.371C284.207 147.371 276.09 148.957 267.058 151.688Z" fill="black"/>
</mask>
<g mask="url(#mask33_2298_3740)">
<path d="M253.894 196.746C254.176 199.18 248.765 201.812 241.804 202.621C234.847 203.43 228.976 202.109 228.691 199.676C228.41 197.238 233.82 194.609 240.781 193.801C247.738 192.992 253.609 194.309 253.894 196.746Z" fill="#009688"/>
</g>
</g>
<path d="M195.071 189.796C195.071 189.796 191.992 200.191 193.149 204.425C194.301 208.66 199.692 204.808 205.078 209.429C210.469 214.046 215.465 222.355 235.867 223.898C256.27 225.437 268.598 214.433 272.832 208.273C277.067 202.113 276.68 194.8 283.992 194.414C291.309 194.031 285.149 179.789 282.84 177.48C282.84 177.48 297.082 156.304 297.082 150.918C297.082 145.527 283.61 146.683 267.059 151.687C267.059 151.687 254.739 145.14 232.41 148.992C210.086 152.839 203.539 159.386 203.539 159.386C203.539 159.386 175.824 162.851 173.899 166.316C171.977 169.777 177.75 184.406 195.071 189.796Z" stroke="#1A2E35" stroke-width="1.113" stroke-miterlimit="10"/>
<path d="M274.688 158.949C264.734 165.668 268.215 172.387 272.695 176.117C275.43 178.398 279.828 178.078 282.844 177.484C282.844 177.48 282.84 177.48 282.84 177.477C282.84 177.477 297.082 156.305 297.082 150.918C297.082 150.918 284.641 152.23 274.688 158.949Z" fill="#009688"/>
<path d="M274.688 158.95C264.734 165.668 268.215 172.387 272.695 176.118C275.43 178.399 279.828 178.078 282.844 177.485C282.844 177.481 282.84 177.481 282.84 177.477C282.84 177.477 297.082 156.305 297.082 150.918C297.082 150.918 284.641 152.231 274.688 158.95Z" stroke="#1A2E35" stroke-width="1.113" stroke-miterlimit="10"/>
<path d="M173.707 166.801C172.473 170.969 178.457 184.629 195.07 189.797C195.07 189.797 207.746 188.563 203.52 178.36C199.57 168.84 179.602 166.469 173.707 166.801Z" fill="#009688"/>
<path d="M173.707 166.801C172.473 170.969 178.457 184.629 195.07 189.797C195.07 189.797 207.746 188.563 203.52 178.359C199.57 168.84 179.602 166.469 173.707 166.801Z" stroke="#1A2E35" stroke-width="1.113" stroke-miterlimit="10"/>
<path d="M232.41 148.992C231.098 149.219 229.84 149.457 228.633 149.699C230.621 159.797 233.922 176.617 236.863 176.617C239.906 176.617 242.051 158.18 243.012 147.848C239.777 147.98 236.246 148.332 232.41 148.992Z" fill="#009688"/>
<path d="M232.41 148.992C231.098 149.219 229.84 149.457 228.633 149.699C230.621 159.797 233.922 176.617 236.863 176.617C239.906 176.617 242.051 158.18 243.012 147.848C239.777 147.98 236.246 148.332 232.41 148.992Z" stroke="#1A2E35" stroke-width="1.113" stroke-miterlimit="10"/>
<path d="M220.938 173.629C223.996 171.828 223.539 158.301 223.055 150.961C219.336 151.902 216.266 152.902 213.738 153.871C214.855 160.742 217.672 175.551 220.938 173.629Z" fill="#009688"/>
<path d="M220.937 173.629C223.996 171.828 223.539 158.301 223.055 150.961C219.336 151.903 216.266 152.903 213.738 153.871C214.855 160.743 217.672 175.551 220.937 173.629Z" stroke="#1A2E35" stroke-width="1.113" stroke-miterlimit="10"/>
<path d="M250.551 167.41C253.684 168.508 255.438 157.258 256.43 148.598C253.731 148.152 250.535 147.828 246.867 147.785C246.774 154.902 247.16 166.223 250.551 167.41Z" fill="#009688"/>
<path d="M250.551 167.41C253.684 168.507 255.438 157.257 256.43 148.597C253.731 148.152 250.535 147.828 246.867 147.785C246.774 154.902 247.16 166.222 250.551 167.41Z" stroke="#1A2E35" stroke-width="1.113" stroke-miterlimit="10"/>
<path d="M246.36 206.355C244.668 205.941 241.039 205.433 237.688 207.418C237.192 207.711 237.106 208.398 237.528 208.793L242.844 213.777C243.274 214.18 243.965 214.039 244.207 213.508L246.926 207.535C247.145 207.051 246.879 206.48 246.36 206.355Z" fill="#009688"/>
<path d="M246.36 206.356C244.668 205.942 241.039 205.434 237.688 207.418C237.192 207.711 237.106 208.399 237.528 208.793L242.844 213.778C243.274 214.18 243.965 214.039 244.207 213.508L246.926 207.536C247.145 207.051 246.879 206.481 246.36 206.356Z" stroke="#1A2E35" stroke-width="1.113" stroke-miterlimit="10" stroke-linecap="round" stroke-linejoin="round"/>
<path d="M233.739 198.011C234.473 199.937 234.184 201.836 233.09 202.25C232 202.668 230.52 201.441 229.786 199.515C229.051 197.59 229.34 195.691 230.43 195.277C231.524 194.859 233.004 196.086 233.739 198.011Z" fill="#1A2E35"/>
<path d="M248.223 196.633C247.84 198.657 248.465 200.477 249.614 200.692C250.762 200.907 252 199.438 252.379 197.411C252.758 195.387 252.137 193.567 250.989 193.352C249.84 193.137 248.602 194.606 248.223 196.633Z" fill="#1A2E35"/>
<path d="M244.207 213.507C244.207 213.507 237.109 223.152 230.641 213.445" stroke="#1A2E35" stroke-width="1.113" stroke-miterlimit="10" stroke-linecap="round" stroke-linejoin="round"/>
<path d="M242.844 213.777C242.844 213.777 247.563 218.672 252.539 215.933C257.516 213.195 254.531 208.964 254.531 208.964" stroke="#1A2E35" stroke-width="1.113" stroke-miterlimit="10" stroke-linecap="round" stroke-linejoin="round"/>
<path d="M221.184 190.305C221.184 190.305 222.926 184.082 231.141 185.574" stroke="#1A2E35" stroke-width="3.34" stroke-miterlimit="10" stroke-linecap="round" stroke-linejoin="round"/>
<path d="M246.07 184.578C246.07 184.578 252.289 180.848 258.016 186.82" stroke="#1A2E35" stroke-width="3.34" stroke-miterlimit="10" stroke-linecap="round" stroke-linejoin="round"/>
<path d="M216.457 206.977L222.43 208.469" stroke="#1A2E35" stroke-width="1.113" stroke-miterlimit="10" stroke-linecap="round"/>
<path d="M221.684 210.711L216.457 211.703" stroke="#1A2E35" stroke-width="1.113" stroke-miterlimit="10" stroke-linecap="round"/>
<path d="M222.68 213.445L218.945 215.438" stroke="#1A2E35" stroke-width="1.113" stroke-miterlimit="10" stroke-linecap="round"/>
<path d="M260.504 204.238L265.73 202.992" stroke="#1A2E35" stroke-width="1.113" stroke-miterlimit="10" stroke-linecap="round"/>
<path d="M261.496 206.727H264.98" stroke="#1A2E35" stroke-width="1.113" stroke-miterlimit="10" stroke-linecap="round"/>
<path d="M262.242 209.215L266.973 210.461" stroke="#1A2E35" stroke-width="1.113" stroke-miterlimit="10" stroke-linecap="round"/>
</svg>
