<svg width="20" height="22" viewBox="0 0 20 22" fill="none" xmlns="http://www.w3.org/2000/svg">
<path d="M5 2.66666L2.5 5.99999V17.6667C2.5 18.1087 2.67559 18.5326 2.98816 18.8452C3.30072 19.1577 3.72464 19.3333 4.16667 19.3333H15.8333C16.2754 19.3333 16.6993 19.1577 17.0118 18.8452C17.3244 18.5326 17.5 18.1087 17.5 17.6667V5.99999L15 2.66666H5Z" stroke="#252A34" stroke-linecap="round" stroke-linejoin="round"/>
<path d="M2.5 6H17.5" stroke="#252A34" stroke-linecap="round" stroke-linejoin="round"/>
<path d="M13.3332 9.33334C13.3332 10.2174 12.982 11.0652 12.3569 11.6904C11.7317 12.3155 10.8839 12.6667 9.99984 12.6667C9.11578 12.6667 8.26794 12.3155 7.64281 11.6904C7.01769 11.0652 6.6665 10.2174 6.6665 9.33334" stroke="#252A34" stroke-linecap="round" stroke-linejoin="round"/>
</svg>
