<svg width="22" height="22" viewBox="0 0 22 22" fill="none" xmlns="http://www.w3.org/2000/svg">
<path d="M19.1031 4.22583C18.6349 3.75742 18.079 3.38584 17.4672 3.13232C16.8554 2.87881 16.1996 2.74832 15.5373 2.74832C14.875 2.74832 14.2192 2.87881 13.6074 3.13232C12.9955 3.38584 12.4396 3.75742 11.9715 4.22583L10.9998 5.19749L10.0281 4.22583C9.0824 3.28011 7.79973 2.74881 6.46228 2.74881C5.12484 2.74881 3.84217 3.28011 2.89645 4.22583C1.95073 5.17155 1.41943 6.45421 1.41943 7.79166C1.41943 9.12911 1.95073 10.4118 2.89645 11.3575L3.86812 12.3292L10.9998 19.4608L18.1315 12.3292L19.1031 11.3575C19.5715 10.8893 19.9431 10.3334 20.1966 9.72157C20.4501 9.10973 20.5806 8.45394 20.5806 7.79166C20.5806 7.12938 20.4501 6.47359 20.1966 5.86175C19.9431 5.24992 19.5715 4.69402 19.1031 4.22583V4.22583Z" stroke="#252A34" stroke-linecap="round" stroke-linejoin="round"/>
</svg>
