<svg width="96" height="96" viewBox="0 0 96 96" fill="none" xmlns="http://www.w3.org/2000/svg">
<rect x="0.5" y="0.5" width="95" height="95" rx="2.5" stroke="#009688"/>
<path d="M69.0833 61.4167C69.0833 62.4333 68.6794 63.4084 67.9605 64.1272C67.2416 64.8461 66.2666 65.25 65.25 65.25H30.75C29.7333 65.25 28.7583 64.8461 28.0394 64.1272C27.3205 63.4084 26.9166 62.4333 26.9166 61.4167V40.3333C26.9166 39.3167 27.3205 38.3416 28.0394 37.6228C28.7583 36.9039 29.7333 36.5 30.75 36.5H38.4166L42.25 30.75H53.75L57.5833 36.5H65.25C66.2666 36.5 67.2416 36.9039 67.9605 37.6228C68.6794 38.3416 69.0833 39.3167 69.0833 40.3333V61.4167Z" stroke="#009688" stroke-width="1.5" stroke-linecap="round" stroke-linejoin="round"/>
<path d="M48 57.5833C52.2342 57.5833 55.6667 54.1509 55.6667 49.9167C55.6667 45.6825 52.2342 42.25 48 42.25C43.7659 42.25 40.3334 45.6825 40.3334 49.9167C40.3334 54.1509 43.7659 57.5833 48 57.5833Z" stroke="#009688" stroke-width="1.5" stroke-linecap="round" stroke-linejoin="round"/>
<line x1="43.5" y1="49.9546" x2="52.5" y2="49.9546" stroke="#009688" stroke-linecap="round"/>
<line x1="48.0454" y1="45.5" x2="48.0454" y2="54.5" stroke="#009688" stroke-linecap="round"/>
</svg>
