<svg width="126" height="48" viewBox="0 0 126 48" fill="#009688" xmlns="http://www.w3.org/2000/svg">
<path d="M20.152 3.856C21.04 3.592 21.856 3.844 22.6 4.612C23.296 5.332 23.68 6.16 23.752 7.096V7.672C23.752 7.84 23.74 7.936 23.716 7.96C23.74 7.936 23.74 7.888 23.716 7.816L23.68 7.672L23.644 7.564C23.668 8.092 23.62 8.704 23.5 9.4C23.548 9.28 23.608 9.136 23.68 8.968C23.704 9.088 23.68 9.268 23.608 9.508L23.5 9.832L23.428 10.084C23.14 11.092 22.84 11.932 22.528 12.604C21.976 13.924 21.088 15.328 19.864 16.816C18.664 18.304 17.476 19.492 16.3 20.38C16.108 20.524 15.856 20.68 15.544 20.848L15.184 21.028L14.788 21.208C14.62 21.304 14.404 21.46 14.14 21.676L13.816 21.928L13.456 22.18L12.952 22.468L12.448 22.792C12.04 23.032 11.668 23.236 11.332 23.404C10.468 23.836 9.7 24.112 9.028 24.232C8.764 24.28 8.512 24.28 8.272 24.232C8.104 24.232 7.876 24.208 7.588 24.16C7.3 23.968 7.132 24.064 7.084 24.448C6.844 24.712 6.616 25.168 6.4 25.816L6.148 26.572C6.052 26.908 5.98 27.148 5.932 27.292C4.996 29.788 4.432 31.78 4.24 33.268C4.192 33.22 4.168 33.172 4.168 33.124C3.808 33.508 3.28 33.712 2.584 33.736C1.84 33.784 1.396 33.532 1.252 32.98L1.216 32.872V32.8C1.192 32.824 1.18 32.872 1.18 32.944C0.964 32.656 0.904 32.164 1 31.468C1.048 31.252 1.108 30.988 1.18 30.676L1.288 30.316L1.36 30.028L2.116 26.356C2.428 24.964 2.764 23.896 3.124 23.152L3.376 22.612L3.628 22.108L3.664 21.928L3.772 21.568C3.844 21.256 3.892 21.088 3.916 21.064L3.952 21.136V21.208C4 21.064 4.024 20.968 4.024 20.92C3.976 21.064 3.964 21.004 3.988 20.74L4.024 20.596V20.452L4.06 20.308C4.156 20.02 4.324 19.588 4.564 19.012C4.828 18.388 5.032 17.728 5.176 17.032C5.2 16.936 5.272 16.72 5.392 16.384C5.536 16 5.68 15.64 5.824 15.304C6.256 14.296 6.544 13.804 6.688 13.828L6.652 13.972L6.616 14.044V14.116C6.808 13.684 6.94 13.36 7.012 13.144C6.964 13.24 6.916 13.3 6.868 13.324C6.844 13.3 7.156 12.556 7.804 11.092L8.2 10.264L8.38 9.868L8.56 9.508C8.8 8.956 8.932 8.644 8.956 8.572L9.208 7.96L9.46 7.348C9.676 6.892 9.88 6.508 10.072 6.196L10.252 6.016L10.396 5.872C10.54 5.752 10.636 5.656 10.684 5.584C10.732 5.536 10.78 5.44 10.828 5.296L10.864 5.116L10.936 4.972L11.008 4.828L11.116 4.612C11.188 4.468 11.272 4.336 11.368 4.216C11.584 3.856 11.788 3.64 11.98 3.568C12.316 3.424 12.64 3.52 12.952 3.856C13.072 4 13.18 4.168 13.276 4.36C13.348 4.504 13.42 4.66 13.492 4.828C13.636 5.212 13.6 5.608 13.384 6.016L13.492 5.944C13.54 5.968 13.444 6.208 13.204 6.664C12.964 7.144 12.808 7.372 12.736 7.348C12.712 7.348 12.712 7.312 12.736 7.24C12.76 7.168 12.796 7.096 12.844 7.024C11.908 8.728 10.984 10.696 10.072 12.928C10.096 12.904 10.204 12.652 10.396 12.172C10.516 11.908 10.624 11.692 10.72 11.524L11.08 10.768C11.68 9.424 12.004 8.764 12.052 8.788C12.028 8.764 11.668 9.556 10.972 11.164C10.756 11.692 10.516 12.268 10.252 12.892C10.132 13.108 10.036 13.312 9.964 13.504C9.892 13.672 9.844 13.792 9.82 13.864C9.076 15.688 8.488 17.38 8.056 18.94C8.992 17.044 9.904 15.448 10.792 14.152C11.152 13.624 11.656 12.976 12.304 12.208L13.096 11.272L13.852 10.3C14.068 9.844 14.236 9.604 14.356 9.58C14.092 9.964 13.972 10.144 13.996 10.12L14.5 9.472C14.476 9.472 14.452 9.46 14.428 9.436C14.452 9.22 14.62 8.932 14.932 8.572C15.028 8.476 15.16 8.344 15.328 8.176L15.508 7.996L15.652 7.852C16.06 7.372 16.552 6.868 17.128 6.34L17.452 6.016L17.776 5.656C18.064 5.344 18.316 5.104 18.532 4.936C19.132 4.36 19.672 4 20.152 3.856ZM20.116 8.212C20.188 6.748 19.624 6.544 18.424 7.6C18.016 7.936 17.548 8.416 17.02 9.04C16.852 9.232 16.672 9.448 16.48 9.688L16.372 9.832L16.264 9.94C16.192 10.012 16.144 10.072 16.12 10.12C14.872 11.608 13.888 12.82 13.168 13.756C12.112 15.148 11.224 16.42 10.504 17.572C10.528 17.476 10.588 17.428 10.684 17.428C9.916 18.892 9.484 19.696 9.388 19.84C9.052 20.464 8.572 21.4 7.948 22.648C7.996 22.624 8.104 22.576 8.272 22.504C8.464 22.432 8.644 22.348 8.812 22.252C9.316 22.06 9.58 21.976 9.604 22C9.604 22.024 9.472 22.096 9.208 22.216L8.884 22.432C8.764 22.48 8.668 22.528 8.596 22.576C12.052 21.136 15.004 18.592 17.452 14.944C16.828 15.832 16.024 16.816 15.04 17.896L14.212 18.724L13.348 19.516C13.3 19.564 13.204 19.624 13.06 19.696L12.736 19.912C12.448 20.104 12.244 20.26 12.124 20.38C12.244 20.236 12.472 20.044 12.808 19.804L13.168 19.552C13.288 19.456 13.384 19.372 13.456 19.3C13.888 18.94 14.308 18.556 14.716 18.148C15.7 17.068 16.504 16.084 17.128 15.196C18.976 12.58 19.972 10.276 20.116 8.284V8.212ZM2.404 26.86C2.332 27.124 2.248 27.496 2.152 27.976L2.044 28.552L1.936 29.128C2.152 28.384 2.488 27.34 2.944 25.996L3.484 24.448L3.988 22.864C3.892 23.176 3.76 23.512 3.592 23.872L3.16 24.808C2.8 25.6 2.548 26.284 2.404 26.86ZM1.684 31.468C1.708 31.324 1.72 31.12 1.72 30.856C1.696 30.568 1.696 30.364 1.72 30.244C1.6 30.748 1.48 31.324 1.36 31.972C1.384 31.9 1.444 31.816 1.54 31.72L1.612 31.576L1.684 31.468ZM9.568 14.152L8.848 15.988L9.604 14.116L9.568 14.152ZM9.64 13.972C9.616 14.02 9.604 14.056 9.604 14.08L9.64 14.044V13.972ZM9.712 13.792L9.676 13.864L9.712 13.828V13.792ZM10.18 18.076C10.204 18.052 10.216 18.028 10.216 18.004V18.04L10.18 18.076ZM33.5398 21.82C33.8998 21.436 34.1518 21.424 34.2958 21.784C34.3438 21.928 34.3678 22.108 34.3678 22.324C34.3678 22.54 34.3438 22.72 34.2958 22.864C34.1998 23.2 34.0438 23.584 33.8278 24.016L33.5038 24.556L33.1798 25.096L32.3878 26.392L31.6318 27.724C30.9838 28.828 30.4318 29.716 29.9758 30.388C28.3438 32.74 26.8918 34.54 25.6198 35.788C24.7798 36.58 23.9758 37.072 23.2078 37.264C22.2238 37.528 21.3478 37.312 20.5798 36.616C19.9078 35.992 19.4758 35.08 19.2838 33.88C19.1398 33.088 19.1038 32.056 19.1758 30.784C19.2478 29.92 19.4038 28.924 19.6438 27.796L19.9678 26.356L20.3278 24.88C20.3278 24.856 20.3398 24.796 20.3638 24.7V24.34C20.3878 24.004 20.4358 23.788 20.5078 23.692C20.4838 23.716 20.4718 23.788 20.4718 23.908V24.052L20.4358 24.232C20.5318 23.896 20.6158 23.644 20.6878 23.476H20.5798C20.5318 23.164 20.5918 22.744 20.7598 22.216L20.9758 21.532L21.0838 21.244L21.1918 20.956C21.4078 20.212 21.6838 19.372 22.0198 18.436L22.8478 16.132L23.6398 13.828C23.9758 12.724 24.6118 11.236 25.5478 9.364C25.8838 8.668 26.2438 7.984 26.6278 7.312C26.6278 7.288 26.6878 7.168 26.8078 6.952L26.9518 6.7L27.1318 6.376C27.4438 5.848 27.6358 5.596 27.7078 5.62L27.4198 6.232L28.5718 4.252L28.5358 4.288L28.6798 4.036L28.8598 3.748C28.9798 3.484 29.0758 3.316 29.1478 3.244L29.9758 2.128L30.3718 1.624L30.8398 1.12C31.1998 0.759999 31.5598 0.519999 31.9198 0.399999C32.6638 0.159999 33.3478 0.351999 33.9718 0.975998C34.5478 1.504 34.8958 2.164 35.0158 2.956L35.0518 2.992V3.172C35.1478 4.132 34.9558 5.284 34.4758 6.628C34.2838 7.132 34.0438 7.696 33.7558 8.32C33.5638 8.728 33.3118 9.232 32.9998 9.832L32.5678 10.732L32.0638 11.668C31.6798 12.364 31.2958 12.916 30.9118 13.324C30.6478 13.612 30.3958 13.96 30.1558 14.368L29.8318 14.944L29.4718 15.556C27.8878 18.076 26.3998 20.212 25.0078 21.964C24.5758 22.516 24.2998 23.008 24.1798 23.44C24.0118 23.992 23.8198 24.688 23.6038 25.528C23.4598 26.008 23.2678 26.728 23.0278 27.688C23.0038 27.76 22.9678 27.88 22.9198 28.048L22.8118 28.48C22.6918 28.864 22.6438 29.068 22.6678 29.092C22.5718 29.5 22.4998 29.944 22.4518 30.424L22.7398 29.344C22.8118 29.464 22.8118 29.74 22.7398 30.172L22.6678 30.676C22.6198 30.868 22.5958 30.988 22.5958 31.036C22.5238 31.564 22.4878 32.128 22.4878 32.728V33.376C22.5118 33.664 22.5478 33.916 22.5958 34.132C22.7398 34.708 23.0038 35.032 23.3878 35.104C23.9158 35.176 24.5158 34.876 25.1878 34.204C25.4278 33.988 25.6798 33.712 25.9438 33.376L26.2678 32.98L26.4118 32.8L26.5198 32.656C27.1678 31.888 27.8518 30.964 28.5718 29.884L29.5078 28.444L30.4438 26.968C31.0438 26.056 31.6678 25.036 32.3158 23.908L32.6038 23.368L32.8918 22.828C33.1318 22.372 33.3478 22.036 33.5398 21.82ZM29.0398 8.932C28.4878 10.3 27.8878 11.944 27.2398 13.864L26.4118 16.348L25.6198 18.76L26.6278 17.14L27.6718 15.52C28.4638 14.224 29.1238 13.108 29.6518 12.172C31.1398 9.58 32.2318 7.24 32.9278 5.152C32.6638 5.896 32.3038 6.736 31.8478 7.672L31.1998 8.932L30.5878 10.12L29.8318 11.452L29.0758 12.82C29.0038 12.916 28.9078 13.072 28.7878 13.288L28.4278 13.792C28.1638 14.2 27.9838 14.524 27.8878 14.764C28.0078 14.38 28.2598 13.888 28.6438 13.288L29.1118 12.568C29.3038 12.28 29.4478 12.052 29.5438 11.884L31.0558 9.076L31.3798 8.428L31.7758 7.708C32.0638 7.132 32.2918 6.64 32.4598 6.232C32.9878 5.08 33.2638 4.072 33.2878 3.208V3.172C33.3118 2.356 33.0478 2.176 32.4958 2.632C32.3278 2.776 32.1238 2.992 31.8838 3.28C31.7878 3.376 31.7038 3.484 31.6318 3.604C31.5838 3.7 31.5358 3.772 31.4878 3.82C31.0318 4.54 30.5878 5.38 30.1558 6.34L29.5798 7.636L29.0398 8.932ZM27.8878 6.412C27.4318 7.3 27.0718 8.056 26.8078 8.68L26.7718 8.752V8.824L27.3838 7.744L28.0318 6.7C28.5598 5.812 28.9678 5.08 29.2558 4.504L28.9318 4.972L28.5718 5.44C28.2358 5.848 28.0078 6.172 27.8878 6.412ZM21.0838 25.024C21.1078 25 21.1198 24.976 21.1198 24.952C21.0958 24.904 21.0718 24.892 21.0478 24.916C20.9038 24.916 20.7598 25.444 20.6158 26.5V26.464C20.3758 27.616 20.2198 28.912 20.1478 30.352L20.2558 29.2V29.308L20.2918 28.948L20.3638 28.588C20.4118 28.372 20.4598 28.084 20.5078 27.724L20.6158 26.824C20.7358 26.104 20.8798 25.54 21.0478 25.132C21.0478 25.108 21.0598 25.072 21.0838 25.024ZM50.1903 22.324C50.2143 22.66 50.0943 23.068 49.8303 23.548L49.4703 24.124C49.3263 24.34 49.2303 24.52 49.1823 24.664C48.7983 25.528 48.2703 26.536 47.5983 27.688C46.7583 29.032 46.0383 30.052 45.4383 30.748C45.0063 31.3 44.6223 31.72 44.2863 32.008C43.7823 32.464 43.2903 32.728 42.8103 32.8C42.2343 32.896 41.6943 32.74 41.1903 32.332C40.7583 31.996 40.4343 31.528 40.2183 30.928C39.8343 29.968 39.7143 28.888 39.8583 27.688C39.9543 26.896 40.2063 25.84 40.6143 24.52C40.6143 24.304 40.6263 24.112 40.6503 23.944L40.3623 24.376L40.0383 24.808C39.7743 25.192 39.5823 25.468 39.4623 25.636L39.1383 26.14L38.8503 26.644C38.6103 27.076 38.4063 27.412 38.2383 27.652C38.2143 27.7 38.1423 27.784 38.0223 27.904C37.9263 28.048 37.8063 28.204 37.6623 28.372C37.2543 28.828 36.8703 29.248 36.5103 29.632C35.4543 30.76 34.8423 31.192 34.6743 30.928C34.9623 30.808 35.0943 30.724 35.0703 30.676C34.6143 30.988 34.1103 31.06 33.5583 30.892C33.6783 30.964 33.7263 31 33.7023 31C33.3423 31.048 32.9823 30.844 32.6223 30.388C32.5023 30.196 32.3823 29.992 32.2623 29.776C32.1663 29.584 32.0943 29.404 32.0463 29.236C31.8063 28.372 31.7943 27.328 32.0103 26.104C32.4423 23.8 33.2703 21.748 34.4943 19.948L34.7463 19.624L34.9983 19.264C35.2143 19.024 35.4183 18.832 35.6103 18.688C35.7063 18.592 35.8503 18.508 36.0423 18.436L36.2583 18.328L36.4743 18.184C37.1463 17.608 37.7463 17.32 38.2743 17.32C39.0663 17.32 39.7143 17.716 40.2183 18.508C40.4343 18.796 40.6143 19.156 40.7583 19.588C40.8783 19.924 40.9983 20.296 41.1183 20.704C41.3823 20.368 41.6343 20.08 41.8743 19.84C42.2103 19.552 42.5223 19.336 42.8103 19.192C43.5783 18.832 44.2623 19.012 44.8623 19.732C45.1743 20.116 45.2943 20.512 45.2223 20.92C45.1743 21.064 45.1023 21.244 45.0063 21.46L44.7183 22.036C44.0463 23.284 43.5423 24.652 43.2063 26.14L43.2423 25.996L43.3143 25.78C43.3863 25.588 43.4463 25.48 43.4943 25.456C43.5423 25.456 43.4823 25.84 43.3143 26.608L43.2063 27.148L43.0983 27.724C43.0023 28.18 42.9423 28.564 42.9183 28.876C42.7263 30.796 43.3863 30.82 44.8983 28.948C45.4023 28.324 45.9303 27.604 46.4823 26.788L47.9583 24.592L48.6063 23.548L49.2903 22.504C49.3623 22.408 49.4343 22.324 49.5063 22.252C49.6263 22.132 49.7223 22.048 49.7943 22C50.0343 21.88 50.1663 21.988 50.1903 22.324ZM39.8583 22.576C39.9783 22.384 40.0383 22.192 40.0383 22C40.0383 21.928 40.0023 21.772 39.9303 21.532L39.8223 21.136L39.7143 20.74C39.4983 20.02 39.4263 19.636 39.4983 19.588C39.5223 19.564 39.5943 19.732 39.7143 20.092L39.7503 20.272L39.8223 20.452C39.8703 20.572 39.8943 20.644 39.8943 20.668L39.8583 20.452L39.7863 20.2C39.7383 19.96 39.6903 19.768 39.6423 19.624C39.4743 19.144 39.2583 18.904 38.9943 18.904C38.4903 18.904 37.9743 19.3 37.4463 20.092C37.2783 20.38 37.0983 20.716 36.9063 21.1C36.8343 21.22 36.7623 21.376 36.6903 21.568L36.5823 21.748L36.5103 21.928C35.6463 23.872 35.0943 25.576 34.8543 27.04C34.8783 26.872 35.0103 26.428 35.2503 25.708C35.5143 24.892 35.7903 24.088 36.0783 23.296C36.8703 21.088 37.4103 19.996 37.6983 20.02C37.4823 20.068 37.0143 21.04 36.2943 22.936C36.0303 23.632 35.7783 24.328 35.5383 25.024C35.3223 25.648 35.2023 26.032 35.1783 26.176C35.1783 26.2 35.1663 26.26 35.1423 26.356L35.1063 26.5L35.0703 26.644C34.9983 26.932 34.9383 27.184 34.8903 27.4C34.7943 28.072 34.8543 28.444 35.0703 28.516C35.2143 28.564 35.4663 28.396 35.8263 28.012C35.9703 27.892 36.1023 27.748 36.2223 27.58L36.3663 27.4C36.4143 27.352 36.4503 27.304 36.4743 27.256C37.1703 26.416 37.8183 25.552 38.4183 24.664L39.3543 23.332C39.4503 23.164 39.6183 22.912 39.8583 22.576ZM41.0103 23.476L40.8303 23.728C40.8063 23.8 40.7583 24.004 40.6863 24.34L41.0103 23.476ZM40.1463 22.108C40.2423 22.012 40.2423 21.892 40.1463 21.748V22.108ZM51.614 24.448L51.002 25.384C50.498 26.128 50.126 26.764 49.886 27.292L49.742 27.004C49.454 27.364 49.094 27.412 48.662 27.148C48.302 26.956 48.002 26.656 47.762 26.248C47.57 25.912 47.522 25.36 47.618 24.592L47.654 24.16L47.69 23.728C47.714 23.368 47.762 23.068 47.834 22.828C47.93 22.492 48.05 22.12 48.194 21.712L48.626 20.596C48.962 19.588 49.226 18.832 49.418 18.328L49.598 17.968L49.778 17.572C49.922 17.236 50.018 16.972 50.066 16.78C50.21 16.252 50.366 15.94 50.534 15.844C50.846 15.652 51.302 15.604 51.902 15.7C52.07 15.724 52.238 15.784 52.406 15.88C52.574 15.976 52.718 16.084 52.838 16.204C53.15 16.54 53.174 16.912 52.91 17.32C52.838 17.416 52.682 17.584 52.442 17.824L52.19 18.112L51.938 18.364C51.818 18.508 51.674 18.856 51.506 19.408C51.482 19.528 51.41 19.66 51.29 19.804L51.146 20.02L51.002 20.236C50.906 20.404 50.81 20.62 50.714 20.884L50.498 21.604C50.474 21.724 50.462 21.856 50.462 22L50.426 22.18V22.396C50.402 22.636 50.342 23.008 50.246 23.512C50.126 24.016 50.054 24.4 50.03 24.664C50.054 24.592 50.114 24.508 50.21 24.412C50.282 24.316 50.33 24.28 50.354 24.304L50.318 24.412L50.21 24.628L50.03 24.952L51.686 22.576L51.722 22.504L52.154 21.856C51.842 22.264 51.566 22.612 51.326 22.9C51.278 22.876 51.986 21.928 53.45 20.056C54.89 18.184 55.742 17.128 56.006 16.888C56.558 16.384 57.11 16.18 57.662 16.276C58.238 16.372 58.646 16.828 58.886 17.644C59.126 18.388 58.946 19.168 58.346 19.984L57.95 20.488L57.518 20.956C57.134 21.364 56.87 21.688 56.726 21.928C56.534 22.24 56.318 22.624 56.078 23.08L55.79 23.692L55.502 24.268L55.394 24.484L55.286 24.7C55.166 24.916 55.07 25.12 54.998 25.312C54.782 25.816 54.662 26.236 54.638 26.572C54.662 26.356 54.758 26.08 54.926 25.744L55.106 25.348C55.178 25.204 55.226 25.096 55.25 25.024C55.538 24.28 55.958 23.644 56.51 23.116L56.114 23.8L55.754 24.448L55.934 24.232C55.958 24.232 55.91 24.436 55.79 24.844C55.742 24.988 55.694 25.144 55.646 25.312C55.598 25.432 55.574 25.504 55.574 25.528C55.382 26.104 55.274 26.56 55.25 26.896C55.226 26.92 55.226 27.124 55.25 27.508L55.286 27.544C55.286 27.52 55.334 27.496 55.43 27.472H55.538L55.61 27.436C55.85 27.364 56.114 27.208 56.402 26.968L56.762 26.68L57.122 26.392C57.482 26.104 57.902 25.744 58.382 25.312L59.642 24.232L60.11 23.8L60.65 23.368C61.058 23.008 61.358 22.708 61.55 22.468C61.622 22.372 61.694 22.288 61.766 22.216C61.862 22.12 61.946 22.048 62.018 22C62.234 21.904 62.378 22.048 62.45 22.432C62.498 22.792 62.294 23.272 61.838 23.872L61.55 24.232L61.262 24.556C61.022 24.82 60.866 25 60.794 25.096L60.218 25.852L59.642 26.644C59.162 27.244 58.754 27.736 58.418 28.12L58.166 28.408L57.842 28.696C57.602 28.912 57.386 29.092 57.194 29.236C56.618 29.644 56.114 29.776 55.682 29.632C55.634 29.608 55.526 29.56 55.358 29.488C55.166 29.392 54.986 29.296 54.818 29.2C54.362 28.912 54.146 28.732 54.17 28.66L54.278 28.732L54.062 28.516C54.134 28.636 54.122 28.66 54.026 28.588L53.882 28.48L53.81 28.444C53.738 28.372 53.654 28.264 53.558 28.12L53.45 27.94L53.378 27.76C53.234 27.448 53.162 27.052 53.162 26.572L53.198 25.96L53.27 25.384L53.306 24.772L53.378 24.196C53.426 23.764 53.51 23.38 53.63 23.044L53.702 22.9L53.738 22.792L53.81 22.612C53.906 22.348 54.002 22.108 54.098 21.892C54.41 21.22 54.614 20.896 54.71 20.92C54.734 20.92 54.722 20.968 54.674 21.064L54.638 21.136V21.208L55.142 20.2L55.07 20.308L54.962 20.38C54.938 20.356 55.01 20.2 55.178 19.912C55.226 19.816 55.286 19.696 55.358 19.552C55.43 19.456 55.478 19.384 55.502 19.336C55.214 19.672 54.878 20.092 54.494 20.596L53.558 21.892L53.198 22.324L52.838 22.684C52.526 22.996 52.31 23.26 52.19 23.476L51.614 24.448ZM74.4676 12.316C74.4916 12.556 74.3836 12.772 74.1436 12.964C73.9516 13.132 73.7236 13.252 73.4596 13.324C73.2916 13.372 73.0516 13.372 72.7396 13.324L72.3436 13.252C72.2236 13.228 72.1156 13.228 72.0196 13.252C71.9236 13.276 71.8516 13.312 71.8036 13.36L71.7316 13.432L71.6236 13.504C71.4796 13.552 71.3116 13.576 71.1196 13.576H70.5796C70.4836 13.576 70.3396 13.564 70.1476 13.54L69.6076 13.468C69.1756 13.444 68.8756 13.48 68.7076 13.576C68.6356 13.6 68.5636 13.672 68.4916 13.792L68.5996 13.576C68.5036 13.6 68.3716 13.804 68.2036 14.188L67.9876 14.692L67.7716 15.232L68.1676 14.44L67.6636 15.808L67.1596 16.96L66.6556 18.112C66.0796 19.432 65.4796 20.944 64.8556 22.648C63.6076 26.224 62.7436 29.116 62.2636 31.324C62.2636 31.372 62.2396 31.456 62.1916 31.576L62.1196 31.936C62.0476 32.296 61.9876 32.596 61.9396 32.836C61.8436 33.628 61.9396 34.084 62.2276 34.204C62.2516 34.228 62.3116 34.216 62.4076 34.168C62.4796 34.144 62.5756 34.108 62.6956 34.06L62.8396 33.988L62.9476 33.916L63.0556 33.88L63.3436 33.592L63.6316 33.304L63.5596 33.34L63.4876 33.412L63.3076 33.556C63.1636 33.652 63.0916 33.688 63.0916 33.664C63.0676 33.568 63.2116 33.376 63.5236 33.088L63.7036 32.908L63.8836 32.764C64.0036 32.644 64.0756 32.572 64.0996 32.548L64.6036 31.972L65.1076 31.432L67.1956 28.876L69.1036 26.428L71.0116 23.98C71.0596 23.908 71.1556 23.776 71.2996 23.584L71.4436 23.296L71.6596 23.008C71.9716 22.552 72.2236 22.3 72.4156 22.252C72.6796 22.204 72.8596 22.288 72.9556 22.504C73.0276 22.696 73.0156 22.924 72.9196 23.188C72.7996 23.548 72.5236 24.004 72.0916 24.556L71.5516 25.168C71.3596 25.408 71.2156 25.624 71.1196 25.816C70.7356 26.464 70.2556 27.196 69.6796 28.012L68.8876 29.092L68.0956 30.172C66.5596 32.236 65.3716 33.76 64.5316 34.744L64.3156 35.032L64.0636 35.32L63.5236 35.932C63.0916 36.388 62.6836 36.712 62.2996 36.904C61.9876 37.048 61.6156 37.06 61.1836 36.94C60.8236 36.82 60.4756 36.64 60.1396 36.4C59.5396 35.992 59.1556 35.392 58.9876 34.6L58.9516 34.492V34.276C58.9036 34.108 58.8796 33.952 58.8796 33.808C58.8316 33.352 58.8556 33.076 58.9516 32.98V33.52L59.0236 32.8C58.9996 32.872 58.9756 32.836 58.9516 32.692V32.404C58.9516 32.188 58.9996 31.888 59.0956 31.504C59.1196 31.264 59.1676 30.976 59.2396 30.64L59.4556 29.812L59.8516 28.12C59.9956 27.448 60.1156 26.884 60.2116 26.428C60.2836 25.924 60.4156 25.36 60.6076 24.736L60.8596 23.944L61.1476 23.116C61.1476 23.092 61.1956 22.948 61.2916 22.684L61.4356 22.288L61.5796 21.856C61.8676 21.112 62.0476 20.74 62.1196 20.74C62.1436 20.74 62.1316 20.812 62.0836 20.956L62.0476 21.136V21.208L62.2996 20.38L62.5876 19.588C62.5396 19.684 62.5036 19.768 62.4796 19.84C62.4316 19.888 62.4076 19.9 62.4076 19.876C62.4076 19.708 62.4916 19.444 62.6596 19.084L62.8756 18.652C62.9476 18.484 62.9956 18.364 63.0196 18.292L63.4516 17.032L64.0636 15.304C64.3036 14.68 64.5316 14.128 64.7476 13.648L63.9916 13.684H63.2716C62.6716 13.708 62.1916 13.756 61.8316 13.828C61.2076 13.948 60.4636 13.984 59.5996 13.936C58.9516 13.936 58.2076 13.876 57.3676 13.756H57.2596L57.1156 13.72C56.9956 13.696 56.8876 13.672 56.7916 13.648C56.5276 13.576 56.4436 13.456 56.5396 13.288C56.5636 13.24 56.7196 13.18 57.0076 13.108L57.3316 13H57.4756L57.5476 12.964C57.8356 12.844 58.1836 12.772 58.5916 12.748L59.1316 12.712L59.6716 12.676L60.7156 12.604L61.7596 12.568C62.6476 12.544 63.3436 12.496 63.8476 12.424H64.4956C64.8076 12.424 65.0236 12.4 65.1436 12.352C65.2636 12.304 65.4196 12.076 65.6116 11.668C65.8276 11.092 66.1036 10.456 66.4396 9.76L66.6916 9.256L66.9076 8.716C67.0996 8.332 67.2916 8.008 67.4836 7.744L67.6996 7.492L67.9156 7.276C68.0836 7.132 68.2036 6.976 68.2756 6.808C68.8036 5.632 69.3436 4.708 69.8956 4.036C70.5436 3.196 71.5756 2.908 72.9916 3.172C73.3516 3.244 73.6276 3.364 73.8196 3.532C74.0836 3.748 74.1556 4.012 74.0356 4.324C73.9876 4.444 73.8916 4.564 73.7476 4.684L73.5316 4.864C73.6276 4.792 73.6756 4.78 73.6756 4.828C73.6516 4.948 73.4116 5.32 72.9556 5.944C72.4996 6.592 72.2476 6.904 72.1996 6.88C72.1756 6.88 72.2596 6.724 72.4516 6.412L72.5596 6.232L72.6316 6.088C72.7036 5.992 72.7396 5.932 72.7396 5.908C71.6596 7.516 70.4596 9.652 69.1396 12.316C69.2356 12.316 69.3556 12.184 69.4996 11.92C69.3796 12.16 69.3196 12.292 69.3196 12.316L71.4436 12.244L73.6036 12.172C73.6516 12.172 73.7356 12.148 73.8556 12.1L74.1436 12.028C74.3356 11.98 74.4436 12.064 74.4676 12.28V12.316ZM68.7076 12.064L69.7876 9.76C70.6516 8.008 71.4916 6.544 72.3076 5.368C71.0836 7.096 69.8596 9.268 68.6356 11.884C68.2276 12.772 67.7116 13.924 67.0876 15.34L66.3676 17.068L65.6116 18.76C64.4116 21.424 63.4156 24.136 62.6236 26.896C62.2876 28.048 61.9876 29.32 61.7236 30.712L61.9036 30.028C62.2396 28.612 62.7676 26.944 63.4876 25.024L64.4596 22.324L65.4316 19.624C66.1996 17.584 66.9316 15.832 67.6276 14.368L68.7076 12.064ZM70.0036 10.804C70.4836 9.724 70.7716 9.172 70.8676 9.148L70.0036 10.804ZM66.2956 18.652C66.2956 18.604 66.3076 18.556 66.3316 18.508L65.8996 19.588L65.4676 20.632L65.8996 19.66L66.2956 18.652ZM69.6076 11.668L69.7156 11.488L69.8956 11.056L69.5356 11.848L69.6076 11.668ZM61.5796 34.456C61.6276 34.504 61.6636 34.528 61.6876 34.528L61.5796 34.456ZM90.0426 3.856C90.9306 3.592 91.7466 3.844 92.4906 4.612C93.1866 5.332 93.5706 6.16 93.6426 7.096V7.672C93.6426 7.84 93.6306 7.936 93.6066 7.96C93.6306 7.936 93.6306 7.888 93.6066 7.816L93.5706 7.672L93.5346 7.564C93.5586 8.092 93.5106 8.704 93.3906 9.4C93.4386 9.28 93.4986 9.136 93.5706 8.968C93.5946 9.088 93.5706 9.268 93.4986 9.508L93.3906 9.832L93.3186 10.084C93.0306 11.092 92.7306 11.932 92.4186 12.604C91.8666 13.924 90.9786 15.328 89.7546 16.816C88.5546 18.304 87.3666 19.492 86.1906 20.38C85.9986 20.524 85.7466 20.68 85.4346 20.848L85.0746 21.028L84.6786 21.208C84.5106 21.304 84.2946 21.46 84.0306 21.676L83.7066 21.928L83.3466 22.18L82.8426 22.468L82.3386 22.792C81.9306 23.032 81.5586 23.236 81.2226 23.404C80.3586 23.836 79.5906 24.112 78.9186 24.232C78.6546 24.28 78.4026 24.28 78.1626 24.232C77.9946 24.232 77.7666 24.208 77.4786 24.16C77.1906 23.968 77.0226 24.064 76.9746 24.448C76.7346 24.712 76.5066 25.168 76.2906 25.816L76.0386 26.572C75.9426 26.908 75.8706 27.148 75.8226 27.292C74.8866 29.788 74.3226 31.78 74.1306 33.268C74.0826 33.22 74.0586 33.172 74.0586 33.124C73.6986 33.508 73.1706 33.712 72.4746 33.736C71.7306 33.784 71.2866 33.532 71.1426 32.98L71.1066 32.872V32.8C71.0826 32.824 71.0706 32.872 71.0706 32.944C70.8546 32.656 70.7946 32.164 70.8906 31.468C70.9386 31.252 70.9986 30.988 71.0706 30.676L71.1786 30.316L71.2506 30.028L72.0066 26.356C72.3186 24.964 72.6546 23.896 73.0146 23.152L73.2666 22.612L73.5186 22.108L73.5546 21.928L73.6626 21.568C73.7346 21.256 73.7826 21.088 73.8066 21.064L73.8426 21.136V21.208C73.8906 21.064 73.9146 20.968 73.9146 20.92C73.8666 21.064 73.8546 21.004 73.8786 20.74L73.9146 20.596V20.452L73.9506 20.308C74.0466 20.02 74.2146 19.588 74.4546 19.012C74.7186 18.388 74.9226 17.728 75.0666 17.032C75.0906 16.936 75.1626 16.72 75.2826 16.384C75.4266 16 75.5706 15.64 75.7146 15.304C76.1466 14.296 76.4346 13.804 76.5786 13.828L76.5426 13.972L76.5066 14.044V14.116C76.6986 13.684 76.8306 13.36 76.9026 13.144C76.8546 13.24 76.8066 13.3 76.7586 13.324C76.7346 13.3 77.0466 12.556 77.6946 11.092L78.0906 10.264L78.2706 9.868L78.4506 9.508C78.6906 8.956 78.8226 8.644 78.8466 8.572L79.0986 7.96L79.3506 7.348C79.5666 6.892 79.7706 6.508 79.9626 6.196L80.1426 6.016L80.2866 5.872C80.4306 5.752 80.5266 5.656 80.5746 5.584C80.6226 5.536 80.6706 5.44 80.7186 5.296L80.7546 5.116L80.8266 4.972L80.8986 4.828L81.0066 4.612C81.0786 4.468 81.1626 4.336 81.2586 4.216C81.4746 3.856 81.6786 3.64 81.8706 3.568C82.2066 3.424 82.5306 3.52 82.8426 3.856C82.9626 4 83.0706 4.168 83.1666 4.36C83.2386 4.504 83.3106 4.66 83.3826 4.828C83.5266 5.212 83.4906 5.608 83.2746 6.016L83.3826 5.944C83.4306 5.968 83.3346 6.208 83.0946 6.664C82.8546 7.144 82.6986 7.372 82.6266 7.348C82.6026 7.348 82.6026 7.312 82.6266 7.24C82.6506 7.168 82.6866 7.096 82.7346 7.024C81.7986 8.728 80.8746 10.696 79.9626 12.928C79.9866 12.904 80.0946 12.652 80.2866 12.172C80.4066 11.908 80.5146 11.692 80.6106 11.524L80.9706 10.768C81.5706 9.424 81.8946 8.764 81.9426 8.788C81.9186 8.764 81.5586 9.556 80.8626 11.164C80.6466 11.692 80.4066 12.268 80.1426 12.892C80.0226 13.108 79.9266 13.312 79.8546 13.504C79.7826 13.672 79.7346 13.792 79.7106 13.864C78.9666 15.688 78.3786 17.38 77.9466 18.94C78.8826 17.044 79.7946 15.448 80.6826 14.152C81.0426 13.624 81.5466 12.976 82.1946 12.208L82.9866 11.272L83.7426 10.3C83.9586 9.844 84.1266 9.604 84.2466 9.58C83.9826 9.964 83.8626 10.144 83.8866 10.12L84.3906 9.472C84.3666 9.472 84.3426 9.46 84.3186 9.436C84.3426 9.22 84.5106 8.932 84.8226 8.572C84.9186 8.476 85.0506 8.344 85.2186 8.176L85.3986 7.996L85.5426 7.852C85.9506 7.372 86.4426 6.868 87.0186 6.34L87.3426 6.016L87.6666 5.656C87.9546 5.344 88.2066 5.104 88.4226 4.936C89.0226 4.36 89.5626 4 90.0426 3.856ZM90.0066 8.212C90.0786 6.748 89.5146 6.544 88.3146 7.6C87.9066 7.936 87.4386 8.416 86.9106 9.04C86.7426 9.232 86.5626 9.448 86.3706 9.688L86.2626 9.832L86.1546 9.94C86.0826 10.012 86.0346 10.072 86.0106 10.12C84.7626 11.608 83.7786 12.82 83.0586 13.756C82.0026 15.148 81.1146 16.42 80.3946 17.572C80.4186 17.476 80.4786 17.428 80.5746 17.428C79.8066 18.892 79.3746 19.696 79.2786 19.84C78.9426 20.464 78.4626 21.4 77.8386 22.648C77.8866 22.624 77.9946 22.576 78.1626 22.504C78.3546 22.432 78.5346 22.348 78.7026 22.252C79.2066 22.06 79.4706 21.976 79.4946 22C79.4946 22.024 79.3626 22.096 79.0986 22.216L78.7746 22.432C78.6546 22.48 78.5586 22.528 78.4866 22.576C81.9426 21.136 84.8946 18.592 87.3426 14.944C86.7186 15.832 85.9146 16.816 84.9306 17.896L84.1026 18.724L83.2386 19.516C83.1906 19.564 83.0946 19.624 82.9506 19.696L82.6266 19.912C82.3386 20.104 82.1346 20.26 82.0146 20.38C82.1346 20.236 82.3626 20.044 82.6986 19.804L83.0586 19.552C83.1786 19.456 83.2746 19.372 83.3466 19.3C83.7786 18.94 84.1986 18.556 84.6066 18.148C85.5906 17.068 86.3946 16.084 87.0186 15.196C88.8666 12.58 89.8626 10.276 90.0066 8.284V8.212ZM72.2946 26.86C72.2226 27.124 72.1386 27.496 72.0426 27.976L71.9346 28.552L71.8266 29.128C72.0426 28.384 72.3786 27.34 72.8346 25.996L73.3746 24.448L73.8786 22.864C73.7826 23.176 73.6506 23.512 73.4826 23.872L73.0506 24.808C72.6906 25.6 72.4386 26.284 72.2946 26.86ZM71.5746 31.468C71.5986 31.324 71.6106 31.12 71.6106 30.856C71.5866 30.568 71.5866 30.364 71.6106 30.244C71.4906 30.748 71.3706 31.324 71.2506 31.972C71.2746 31.9 71.3346 31.816 71.4306 31.72L71.5026 31.576L71.5746 31.468ZM79.4586 14.152L78.7386 15.988L79.4946 14.116L79.4586 14.152ZM79.5306 13.972C79.5066 14.02 79.4946 14.056 79.4946 14.08L79.5306 14.044V13.972ZM79.6026 13.792L79.5666 13.864L79.6026 13.828V13.792ZM80.0706 18.076C80.0946 18.052 80.1066 18.028 80.1066 18.004V18.04L80.0706 18.076ZM107.354 22.324C107.378 22.66 107.258 23.068 106.994 23.548L106.634 24.124C106.49 24.34 106.394 24.52 106.346 24.664C105.962 25.528 105.434 26.536 104.762 27.688C103.922 29.032 103.202 30.052 102.602 30.748C102.17 31.3 101.786 31.72 101.45 32.008C100.946 32.464 100.454 32.728 99.9744 32.8C99.3984 32.896 98.8584 32.74 98.3544 32.332C97.9224 31.996 97.5984 31.528 97.3824 30.928C96.9984 29.968 96.8784 28.888 97.0224 27.688C97.1184 26.896 97.3704 25.84 97.7784 24.52C97.7784 24.304 97.7904 24.112 97.8144 23.944L97.5264 24.376L97.2024 24.808C96.9384 25.192 96.7464 25.468 96.6264 25.636L96.3024 26.14L96.0144 26.644C95.7744 27.076 95.5704 27.412 95.4024 27.652C95.3784 27.7 95.3064 27.784 95.1864 27.904C95.0904 28.048 94.9704 28.204 94.8264 28.372C94.4184 28.828 94.0344 29.248 93.6744 29.632C92.6184 30.76 92.0064 31.192 91.8384 30.928C92.1264 30.808 92.2584 30.724 92.2344 30.676C91.7784 30.988 91.2744 31.06 90.7224 30.892C90.8424 30.964 90.8904 31 90.8664 31C90.5064 31.048 90.1464 30.844 89.7864 30.388C89.6664 30.196 89.5464 29.992 89.4264 29.776C89.3304 29.584 89.2584 29.404 89.2104 29.236C88.9704 28.372 88.9584 27.328 89.1744 26.104C89.6064 23.8 90.4344 21.748 91.6584 19.948L91.9104 19.624L92.1624 19.264C92.3784 19.024 92.5824 18.832 92.7744 18.688C92.8704 18.592 93.0144 18.508 93.2064 18.436L93.4224 18.328L93.6384 18.184C94.3104 17.608 94.9104 17.32 95.4384 17.32C96.2304 17.32 96.8784 17.716 97.3824 18.508C97.5984 18.796 97.7784 19.156 97.9224 19.588C98.0424 19.924 98.1624 20.296 98.2824 20.704C98.5464 20.368 98.7984 20.08 99.0384 19.84C99.3744 19.552 99.6864 19.336 99.9744 19.192C100.742 18.832 101.426 19.012 102.026 19.732C102.338 20.116 102.458 20.512 102.386 20.92C102.338 21.064 102.266 21.244 102.17 21.46L101.882 22.036C101.21 23.284 100.706 24.652 100.37 26.14L100.406 25.996L100.478 25.78C100.55 25.588 100.61 25.48 100.658 25.456C100.706 25.456 100.646 25.84 100.478 26.608L100.37 27.148L100.262 27.724C100.166 28.18 100.106 28.564 100.082 28.876C99.8904 30.796 100.55 30.82 102.062 28.948C102.566 28.324 103.094 27.604 103.646 26.788L105.122 24.592L105.77 23.548L106.454 22.504C106.526 22.408 106.598 22.324 106.67 22.252C106.79 22.132 106.886 22.048 106.958 22C107.198 21.88 107.33 21.988 107.354 22.324ZM97.0224 22.576C97.1424 22.384 97.2024 22.192 97.2024 22C97.2024 21.928 97.1664 21.772 97.0944 21.532L96.9864 21.136L96.8784 20.74C96.6624 20.02 96.5904 19.636 96.6624 19.588C96.6864 19.564 96.7584 19.732 96.8784 20.092L96.9144 20.272L96.9864 20.452C97.0344 20.572 97.0584 20.644 97.0584 20.668L97.0224 20.452L96.9504 20.2C96.9024 19.96 96.8544 19.768 96.8064 19.624C96.6384 19.144 96.4224 18.904 96.1584 18.904C95.6544 18.904 95.1384 19.3 94.6104 20.092C94.4424 20.38 94.2624 20.716 94.0704 21.1C93.9984 21.22 93.9264 21.376 93.8544 21.568L93.7464 21.748L93.6744 21.928C92.8104 23.872 92.2584 25.576 92.0184 27.04C92.0424 26.872 92.1744 26.428 92.4144 25.708C92.6784 24.892 92.9544 24.088 93.2424 23.296C94.0344 21.088 94.5744 19.996 94.8624 20.02C94.6464 20.068 94.1784 21.04 93.4584 22.936C93.1944 23.632 92.9424 24.328 92.7024 25.024C92.4864 25.648 92.3664 26.032 92.3424 26.176C92.3424 26.2 92.3304 26.26 92.3064 26.356L92.2704 26.5L92.2344 26.644C92.1624 26.932 92.1024 27.184 92.0544 27.4C91.9584 28.072 92.0184 28.444 92.2344 28.516C92.3784 28.564 92.6304 28.396 92.9904 28.012C93.1344 27.892 93.2664 27.748 93.3864 27.58L93.5304 27.4C93.5784 27.352 93.6144 27.304 93.6384 27.256C94.3344 26.416 94.9824 25.552 95.5824 24.664L96.5184 23.332C96.6144 23.164 96.7824 22.912 97.0224 22.576ZM98.1744 23.476L97.9944 23.728C97.9704 23.8 97.9224 24.004 97.8504 24.34L98.1744 23.476ZM97.3104 22.108C97.4064 22.012 97.4064 21.892 97.3104 21.748V22.108ZM125.734 22.396C125.758 22.684 125.65 22.948 125.41 23.188L125.05 23.512L124.69 23.764L121.558 26.248C120.334 27.232 119.23 28.168 118.246 29.056L117.886 29.344L117.454 29.668C117.118 29.956 116.878 30.196 116.734 30.388C116.59 30.58 116.458 30.928 116.338 31.432L116.158 32.044C116.11 32.284 116.062 32.464 116.014 32.584L115.006 35.788C114.622 37.012 114.262 38.068 113.926 38.956C113.062 41.356 112.126 43.384 111.118 45.04L110.578 45.904C110.386 46.24 110.194 46.504 110.002 46.696C109.546 47.248 108.994 47.608 108.346 47.776C107.554 47.992 106.738 47.92 105.898 47.56C105.106 47.248 104.458 46.744 103.954 46.048C103.33 45.232 103.222 44.26 103.63 43.132C103.798 42.7 104.038 42.22 104.35 41.692L104.818 41.044L105.25 40.432L106.078 39.316L106.942 38.2C107.59 37.384 108.19 36.688 108.742 36.112C109.15 35.704 109.618 35.248 110.146 34.744L111.586 33.376C111.73 33.232 111.922 33.052 112.162 32.836L112.846 32.26C113.374 31.78 113.734 31.372 113.926 31.036C114.142 30.604 114.358 29.992 114.574 29.2L114.826 28.228C114.946 27.844 115.042 27.532 115.114 27.292C115.306 26.62 115.618 25.612 116.05 24.268C115.834 24.436 115.57 24.724 115.258 25.132L114.862 25.636L114.466 26.068L112.09 28.444C111.106 29.476 110.206 30.16 109.39 30.496C109.342 30.52 109.234 30.568 109.066 30.64L108.814 30.748L108.562 30.856C108.106 31.048 107.866 31.132 107.842 31.108L107.914 31.036L107.698 31.108C107.818 31.108 107.77 31.156 107.554 31.252C107.338 31.348 107.194 31.396 107.122 31.396C106.714 31.468 106.33 31.408 105.97 31.216C105.25 30.832 104.842 30.172 104.746 29.236V28.732C104.77 28.444 104.794 28.156 104.818 27.868C104.938 27.076 105.07 26.692 105.214 26.716C105.238 26.716 105.25 26.752 105.25 26.824L105.214 26.896L105.25 26.968L105.322 26.572L105.394 26.176L105.322 26.248C105.25 26.224 105.418 25.6 105.826 24.376C105.946 23.992 106.09 23.548 106.258 23.044L106.33 22.756L106.438 22.54C106.486 22.396 106.51 22.312 106.51 22.288L106.726 21.748L106.906 21.172C107.074 20.74 107.242 20.38 107.41 20.092L107.518 19.948L107.626 19.84C107.722 19.744 107.794 19.66 107.842 19.588C107.866 19.564 107.914 19.492 107.986 19.372L108.058 19.228L108.13 19.12C108.322 18.688 108.646 18.376 109.102 18.184C109.534 17.992 109.966 17.98 110.398 18.148C110.614 18.22 110.818 18.364 111.01 18.58C111.202 18.82 111.274 19.048 111.226 19.264C111.202 19.36 111.142 19.444 111.046 19.516L110.974 19.588L110.866 19.696L110.938 19.66H110.974C111.022 19.684 110.962 19.888 110.794 20.272C110.602 20.68 110.482 20.872 110.434 20.848C110.41 20.848 110.41 20.788 110.434 20.668L110.47 20.56L110.506 20.416C109.57 22.36 108.862 24.076 108.382 25.564C108.454 25.372 108.562 25.096 108.706 24.736C108.874 24.328 109.042 23.944 109.21 23.584C109.618 22.576 109.846 22.084 109.894 22.108C109.918 22.108 109.762 22.48 109.426 23.224C109.234 23.632 109.066 24.004 108.922 24.34C108.73 24.82 108.562 25.264 108.418 25.672C107.53 28.072 107.446 29.38 108.166 29.596C108.43 29.692 108.814 29.548 109.318 29.164C109.486 29.044 109.678 28.888 109.894 28.696L110.146 28.48C110.218 28.408 110.278 28.36 110.326 28.336L111.082 27.76L111.874 27.148C112.498 26.644 112.978 26.224 113.314 25.888L113.206 25.96C113.158 25.984 113.11 25.996 113.062 25.996C113.086 25.996 113.386 25.636 113.962 24.916L114.322 24.52L114.646 24.16C114.862 23.872 114.994 23.704 115.042 23.656C115.162 23.536 115.33 23.356 115.546 23.116L116.122 22.54C116.578 22.06 116.866 21.64 116.986 21.28C117.154 20.704 117.478 20.368 117.958 20.272C118.438 20.2 118.918 20.26 119.398 20.452C119.926 20.692 120.226 21.04 120.298 21.496C120.346 21.808 120.238 22.18 119.974 22.612C118.75 24.628 117.826 26.512 117.202 28.264L119.686 26.176C120.622 25.408 121.486 24.724 122.278 24.124L123.214 23.404L124.15 22.684L124.222 22.612L124.33 22.54L124.546 22.324C124.738 22.18 124.906 22.072 125.05 22C125.458 21.784 125.686 21.916 125.734 22.396ZM110.254 41.08C110.734 40 111.226 38.764 111.73 37.372L112.414 35.5L113.062 33.628C111.622 34.972 110.254 36.472 108.958 38.128L108.49 38.704L108.022 39.316C107.662 39.796 107.35 40.216 107.086 40.576C106.438 41.56 105.994 42.472 105.754 43.312C105.706 43.528 105.682 43.804 105.682 44.14C105.682 44.5 105.718 44.824 105.79 45.112C106.03 45.904 106.462 46.192 107.086 45.976C107.422 45.856 107.746 45.58 108.058 45.148C108.178 45.004 108.31 44.812 108.454 44.572L108.634 44.284L108.778 44.032C109.282 43.192 109.702 42.376 110.038 41.584C110.062 41.536 110.074 41.5 110.074 41.476C110.074 41.452 110.086 41.44 110.11 41.44V41.404L110.254 41.116V41.08ZM112.342 40.576C112.27 40.72 112.186 40.912 112.09 41.152L111.874 41.764L112.198 41.188C112.366 40.9 112.522 40.576 112.666 40.216L112.99 39.244C112.678 39.796 112.462 40.24 112.342 40.576ZM113.566 36.652C113.59 36.58 113.602 36.472 113.602 36.328L113.566 36.04C113.59 36.208 113.554 36.436 113.458 36.724L113.35 37.048L113.206 37.336C113.134 37.432 113.074 37.564 113.026 37.732L112.918 38.236L113.566 36.652ZM112.414 39.712C112.462 39.664 112.51 39.592 112.558 39.496L112.414 39.712Z"/>
</svg>
